<svg width="211" height="32" viewBox="0 0 211 32" fill="none" xmlns="http://www.w3.org/2000/svg">
<path d="M176.824 29.1172H180.172V22.7842H181.479V29.1104H182.425L182.327 32H181.017V30.2383H175.528V22.7842H176.824V29.1172ZM24.3076 22.6826C24.9603 22.6826 25.5442 22.8344 26.0586 23.1377C26.5752 23.4409 26.9829 23.8788 27.2812 24.4512C27.5821 25.0214 27.7324 25.7086 27.7324 26.5117C27.7324 27.3148 27.5821 28.0026 27.2812 28.5752C26.9828 29.1454 26.5754 29.5825 26.0586 29.8857C25.5442 30.189 24.9603 30.3408 24.3076 30.3408C23.6551 30.3408 23.0704 30.1889 22.5537 29.8857C22.0393 29.58 21.6319 29.1415 21.3311 28.5713C21.0326 27.9987 20.8828 27.3123 20.8828 26.5117C20.8828 25.7086 21.0326 25.0214 21.3311 24.4512C21.6319 23.8788 22.0395 23.4409 22.5537 23.1377C23.0705 22.8345 23.655 22.6826 24.3076 22.6826ZM45.8262 22.6826C46.3233 22.6827 46.7549 22.7762 47.1211 22.9629C47.4898 23.1473 47.7752 23.3961 47.9766 23.709C48.1779 24.0219 48.2793 24.3677 48.2793 24.7461C48.2817 25.1659 48.1571 25.5179 47.9072 25.8018C47.6598 26.0854 47.3351 26.271 46.9326 26.3584V26.417C47.4564 26.4898 47.8578 26.6838 48.1367 26.999C48.4182 27.312 48.5581 27.7021 48.5557 28.168C48.5556 28.5849 48.4367 28.9583 48.1992 29.2881C47.9639 29.6156 47.6385 29.8737 47.2236 30.0605C46.8111 30.2474 46.3375 30.3408 45.8037 30.3408C45.2797 30.3408 44.8138 30.2508 44.4062 30.0713C44.0011 29.8917 43.6807 29.6416 43.4453 29.3213C43.21 29.001 43.0849 28.6307 43.0703 28.2109H44.4395C44.4516 28.4123 44.5183 28.5888 44.6396 28.7393C44.7609 28.8871 44.9219 29.0025 45.123 29.085C45.3244 29.1675 45.5509 29.208 45.8008 29.208C46.0674 29.208 46.3037 29.1624 46.5098 29.0703C46.716 28.9757 46.8777 28.8442 46.9941 28.6768C47.1105 28.5095 47.1674 28.3168 47.165 28.0986C47.1675 27.8731 47.109 27.6742 46.9902 27.502C46.8713 27.3297 46.6993 27.1947 46.4736 27.0977C46.2505 27.0006 45.9813 26.9522 45.666 26.9521H45.0068V25.9111H45.666C45.9255 25.9111 46.1527 25.8661 46.3467 25.7764C46.5431 25.6866 46.697 25.5599 46.8086 25.3975C46.9201 25.2325 46.9751 25.042 46.9727 24.8262C46.975 24.6152 46.9271 24.4316 46.8301 24.2764C46.7355 24.119 46.6011 23.9964 46.4268 23.9092C46.2545 23.8218 46.0513 23.7783 45.8184 23.7783C45.5904 23.7783 45.3796 23.8199 45.1855 23.9023C44.9915 23.9848 44.8347 24.1021 44.7158 24.2549C44.5969 24.4053 44.5336 24.5853 44.5264 24.7939H43.2275C43.2372 24.3766 43.3574 24.0098 43.5879 23.6943C43.8208 23.3766 44.1314 23.1292 44.5195 22.9521C44.9077 22.7727 45.3434 22.6826 45.8262 22.6826ZM53.1133 22.6826C53.7659 22.6826 54.3499 22.8344 54.8643 23.1377C55.3808 23.441 55.7886 23.8788 56.0869 24.4512C56.3878 25.0214 56.5381 25.7086 56.5381 26.5117C56.5381 27.3147 56.3877 28.0026 56.0869 28.5752C55.7885 29.1453 55.381 29.5824 54.8643 29.8857C54.3499 30.189 53.7659 30.3408 53.1133 30.3408C52.4606 30.3408 51.8752 30.189 51.3584 29.8857C50.8441 29.58 50.4366 29.1414 50.1357 28.5713C49.8374 27.9988 49.6885 27.3122 49.6885 26.5117C49.6885 25.7086 49.8373 25.0214 50.1357 24.4512C50.4365 23.8788 50.8442 23.441 51.3584 23.1377C51.8752 22.8344 52.4606 22.6826 53.1133 22.6826ZM109.592 22.6826C110.007 22.6826 110.392 22.741 110.749 22.8574C111.106 22.9739 111.424 23.1445 111.703 23.3701C111.982 23.5933 112.211 23.8682 112.391 24.1934C112.573 24.516 112.691 24.8849 112.747 25.2998H111.387C111.348 25.0766 111.276 24.8783 111.172 24.7061C111.068 24.5315 110.937 24.384 110.782 24.2627C110.627 24.1414 110.45 24.0499 110.251 23.9893C110.055 23.9262 109.842 23.8946 109.614 23.8945C109.209 23.8945 108.849 23.9964 108.536 24.2002C108.223 24.4016 107.979 24.6983 107.802 25.0889C107.625 25.4771 107.535 25.9513 107.535 26.5117C107.535 27.0818 107.625 27.5625 107.802 27.9531C107.981 28.3411 108.226 28.6351 108.536 28.834C108.849 29.0305 109.208 29.1279 109.61 29.1279C109.834 29.1279 110.042 29.0992 110.236 29.041C110.433 28.9804 110.608 28.8918 110.764 28.7754C110.921 28.6589 111.053 28.5155 111.16 28.3457C111.269 28.1759 111.345 27.982 111.387 27.7637L112.747 27.7705C112.696 28.1247 112.586 28.4571 112.416 28.7676C112.249 29.0781 112.03 29.353 111.758 29.5908C111.486 29.8262 111.168 30.0101 110.804 30.1436C110.44 30.2745 110.036 30.3408 109.592 30.3408C108.937 30.3408 108.352 30.1889 107.838 29.8857C107.324 29.5824 106.918 29.1439 106.622 28.5713C106.326 27.9987 106.178 27.3123 106.178 26.5117C106.178 25.7086 106.328 25.0214 106.626 24.4512C106.924 23.8788 107.331 23.4409 107.845 23.1377C108.359 22.8344 108.942 22.6826 109.592 22.6826ZM144.362 22.6826C144.777 22.6826 145.163 22.741 145.52 22.8574C145.876 22.9739 146.195 23.1445 146.474 23.3701C146.753 23.5933 146.982 23.8682 147.161 24.1934C147.343 24.5161 147.463 24.8849 147.519 25.2998H146.157C146.118 25.0766 146.047 24.8783 145.942 24.7061C145.838 24.5315 145.708 24.384 145.553 24.2627C145.397 24.1414 145.22 24.0499 145.021 23.9893C144.825 23.9262 144.613 23.8946 144.385 23.8945C143.98 23.8945 143.62 23.9964 143.307 24.2002C142.994 24.4016 142.749 24.6983 142.572 25.0889C142.395 25.477 142.307 25.9513 142.307 26.5117C142.307 27.0818 142.395 27.5625 142.572 27.9531C142.752 28.3411 142.996 28.6351 143.307 28.834C143.62 29.0305 143.978 29.1279 144.381 29.1279C144.604 29.1279 144.813 29.0992 145.007 29.041C145.203 28.9804 145.379 28.8918 145.534 28.7754C145.692 28.6589 145.825 28.5156 145.932 28.3457C146.041 28.1759 146.116 27.9819 146.157 27.7637L147.519 27.7705C147.468 28.1247 147.356 28.4571 147.187 28.7676C147.019 29.0782 146.8 29.353 146.528 29.5908C146.257 29.8262 145.938 30.0101 145.574 30.1436C145.21 30.2745 144.806 30.3408 144.362 30.3408C143.707 30.3408 143.123 30.1889 142.608 29.8857C142.094 29.5824 141.689 29.1439 141.393 28.5713C141.097 27.9988 140.948 27.3122 140.948 26.5117C140.948 25.7086 141.098 25.0214 141.396 24.4512C141.695 23.8788 142.101 23.4409 142.615 23.1377C143.13 22.8344 143.712 22.6827 144.362 22.6826ZM6.91895 30.2383H5.47754L4.85938 28.4004H2.05762L1.44141 30.2383H0L2.62402 22.7842H4.29102L6.91895 30.2383ZM10.7539 22.7842C11.2924 22.7842 11.7401 22.8693 12.0967 23.0391C12.4558 23.2065 12.7242 23.4364 12.9014 23.7275C13.0808 24.0185 13.1708 24.3482 13.1709 24.7168C13.1709 25.0201 13.1125 25.2802 12.9961 25.4961C12.8796 25.7096 12.7229 25.8832 12.5264 26.0166C12.33 26.1499 12.1106 26.2455 11.8682 26.3037V26.377C12.1324 26.3916 12.3855 26.4732 12.6279 26.6211C12.8729 26.7666 13.0733 26.9725 13.2285 27.2393C13.3838 27.5062 13.4619 27.8295 13.4619 28.208C13.4618 28.5935 13.3683 28.9401 13.1816 29.248C12.9948 29.5538 12.713 29.7955 12.3369 29.9727C11.9609 30.1497 11.488 30.2383 10.918 30.2383H7.90039V22.7842H10.7539ZM20.2559 23.917H17.9521V30.2383H16.6133V23.917H14.3086V22.7842H20.2559V23.917ZM31.8047 22.7842C32.3772 22.7842 32.8579 22.891 33.2461 23.1045C33.6365 23.3179 33.931 23.6119 34.1299 23.9854C34.3312 24.3565 34.4326 24.7789 34.4326 25.252C34.4326 25.7299 34.3313 26.1551 34.1299 26.5264C33.9285 26.8975 33.6313 27.1899 33.2383 27.4033C32.8452 27.6144 32.3611 27.7197 31.7861 27.7197H30.3594V30.2383H29.0088V22.7842H31.8047ZM36.9443 27.8652H37.0137L40.5186 22.7842H41.7305V30.2383H40.3799V25.1611H40.3184L36.8027 30.2383H35.6055V22.7842H36.9443V27.8652ZM60.668 22.7842C61.2065 22.7842 61.6541 22.8693 62.0107 23.0391C62.3698 23.2065 62.6383 23.4364 62.8154 23.7275C62.9948 24.0185 63.0849 24.3483 63.085 24.7168C63.085 25.0201 63.0266 25.2802 62.9102 25.4961C62.7937 25.7096 62.637 25.8832 62.4404 26.0166C62.2439 26.15 62.0239 26.2455 61.7812 26.3037V26.377C62.0457 26.3915 62.2994 26.4731 62.542 26.6211C62.787 26.7666 62.9873 26.9725 63.1426 27.2393C63.2979 27.5062 63.376 27.8295 63.376 28.208C63.3759 28.5935 63.2823 28.9401 63.0957 29.248C62.9089 29.5538 62.6271 29.7955 62.251 29.9727C61.875 30.1497 61.402 30.2383 60.832 30.2383H57.8145V22.7842H60.668ZM70.9854 30.2383H69.5439L68.9258 28.4004H66.124L65.5078 30.2383H64.0664L66.6904 22.7842H68.3574L70.9854 30.2383ZM73.3174 25.9404H76.7715V22.7842H78.125V30.2383H76.7715V27.0723H73.3174V30.2383H71.9668V22.7842H73.3174V25.9404ZM80.9443 25.9404H84.3984V22.7842H85.752V30.2383H84.3984V27.0723H80.9443V30.2383H79.5938V22.7842H80.9443V25.9404ZM88.5889 25.6631H90.0264C90.5964 25.6631 91.0856 25.7566 91.4932 25.9434C91.9032 26.1278 92.2172 26.3893 92.4355 26.7266C92.6538 27.0637 92.7636 27.46 92.7637 27.916C92.7637 28.3745 92.6539 28.7786 92.4355 29.1279C92.2172 29.4749 91.9032 29.7468 91.4932 29.9434C91.0855 30.1399 90.5966 30.2383 90.0264 30.2383H87.2354V22.7842H88.5889V25.6631ZM94.7617 30.2383H93.4082V22.7842H94.7617V30.2383ZM97.5674 27.8652H97.6367L101.142 22.7842H102.354V30.2383H101.004V25.1611H100.941L97.4258 30.2383H96.2285V22.7842H97.5674V27.8652ZM118.832 23.917H115.334V25.9404H118.581V27.0723H115.334V29.1064H118.861V30.2383H113.984V22.7842H118.832V23.917ZM123.005 22.7842C123.577 22.7842 124.058 22.891 124.446 23.1045C124.837 23.3179 125.131 23.6119 125.33 23.9854C125.531 24.3565 125.633 24.7789 125.633 25.252C125.633 25.7299 125.531 26.1551 125.33 26.5264C125.129 26.8974 124.831 27.1899 124.438 27.4033C124.045 27.6143 123.561 27.7197 122.986 27.7197H121.56V30.2383H120.21V22.7842H123.005ZM129.659 22.7842C130.198 22.7842 130.645 22.8693 131.002 23.0391C131.361 23.2065 131.629 23.4364 131.806 23.7275C131.985 24.0186 132.075 24.3482 132.075 24.7168C132.075 25.0201 132.017 25.2801 131.9 25.4961C131.784 25.7095 131.628 25.8832 131.432 26.0166C131.235 26.15 131.015 26.2455 130.772 26.3037V26.377C131.037 26.3915 131.291 26.4731 131.533 26.6211C131.778 26.7667 131.979 26.9725 132.134 27.2393C132.289 27.5062 132.366 27.8295 132.366 28.208C132.366 28.5936 132.273 28.9401 132.086 29.248C131.899 29.5537 131.618 29.7955 131.242 29.9727C130.866 30.1498 130.392 30.2383 129.822 30.2383H126.806V22.7842H129.659ZM134.881 27.8652H134.95L138.455 22.7842H139.667V30.2383H138.316V25.1611H138.255L134.738 30.2383H133.541V22.7842H134.881V27.8652ZM150.104 25.9404H153.559V22.7842H154.913V30.2383H153.559V27.0723H150.104V30.2383H148.755V22.7842H150.104V25.9404ZM157.75 25.6631H159.188C159.758 25.6631 160.247 25.7566 160.654 25.9434C161.064 26.1278 161.378 26.3893 161.597 26.7266C161.815 27.0637 161.925 27.4601 161.925 27.916C161.925 28.3745 161.815 28.7786 161.597 29.1279C161.378 29.4749 161.064 29.7468 160.654 29.9434C160.247 30.1399 159.758 30.2383 159.188 30.2383H156.396V22.7842H157.75V25.6631ZM163.923 30.2383H162.568V22.7842H163.923V30.2383ZM166.729 27.8652H166.798L170.303 22.7842H171.515V30.2383H170.164V25.1611H170.103L166.587 30.2383H165.39V22.7842H166.729V27.8652ZM188.373 23.917H184.876V25.9404H188.122V27.0723H184.876V29.1064H188.402V30.2383H183.525V22.7842H188.373V23.917ZM191.101 25.9404H194.555V22.7842H195.909V30.2383H194.555V27.0723H191.101V30.2383H189.751V22.7842H191.101V25.9404ZM202.997 23.917H200.693V30.2383H199.354V23.917H197.05V22.7842H202.997V23.917ZM206.938 22.7842C207.511 22.7842 207.992 22.891 208.38 23.1045C208.77 23.318 209.066 23.6117 209.265 23.9854C209.466 24.3565 209.566 24.7789 209.566 25.252C209.566 25.7299 209.466 26.1551 209.265 26.5264C209.063 26.8975 208.766 27.1898 208.373 27.4033C207.98 27.6144 207.496 27.7197 206.921 27.7197H205.494V30.2383H204.144V22.7842H206.938ZM88.5889 29.1318H90.0264C90.3272 29.1318 90.5823 29.075 90.791 28.9609C90.9995 28.847 91.1569 28.6965 91.2637 28.5098C91.3729 28.3229 91.4277 28.1197 91.4277 27.9014C91.4276 27.5861 91.306 27.3183 91.0635 27.0977C90.8233 26.8745 90.4776 26.7627 90.0264 26.7627H88.5889V29.1318ZM157.75 29.1318H159.188C159.488 29.1318 159.743 29.075 159.952 28.9609C160.161 28.8469 160.318 28.6964 160.425 28.5098C160.534 28.3229 160.589 28.1197 160.589 27.9014C160.589 27.5861 160.467 27.3183 160.225 27.0977C159.984 26.8744 159.639 26.7627 159.188 26.7627H157.75V29.1318ZM24.3076 23.8945C23.9027 23.8946 23.5448 23.9951 23.2344 24.1963C22.9239 24.3952 22.68 24.6905 22.5029 25.0811C22.3282 25.4693 22.2402 25.9464 22.2402 26.5117C22.2403 27.077 22.3283 27.5547 22.5029 27.9453C22.6801 28.3335 22.9238 28.6287 23.2344 28.8301C23.5449 29.0289 23.9026 29.1279 24.3076 29.1279C24.7128 29.1279 25.0713 29.029 25.3818 28.8301C25.6923 28.6287 25.9347 28.3334 26.1094 27.9453C26.2864 27.5547 26.375 27.0769 26.375 26.5117C26.375 25.9464 26.2865 25.4693 26.1094 25.0811C25.9347 24.6905 25.6924 24.3952 25.3818 24.1963C25.0713 23.9949 24.7128 23.8945 24.3076 23.8945ZM53.1133 23.8945C52.7081 23.8945 52.3496 23.9949 52.0391 24.1963C51.7285 24.3953 51.4847 24.6904 51.3076 25.0811C51.1329 25.4693 51.0459 25.9464 51.0459 26.5117C51.0459 27.0768 51.133 27.5548 51.3076 27.9453C51.4847 28.3334 51.7286 28.6287 52.0391 28.8301C52.3496 29.029 52.7081 29.1279 53.1133 29.1279C53.5183 29.1279 53.876 29.0289 54.1865 28.8301C54.4971 28.6287 54.7403 28.3335 54.915 27.9453C55.0921 27.5548 55.1806 27.0768 55.1807 26.5117C55.1807 25.9464 55.0922 25.4693 54.915 25.0811C54.7403 24.6904 54.4971 24.3953 54.1865 24.1963C53.8761 23.9951 53.5182 23.8946 53.1133 23.8945ZM9.25098 29.1104H10.7031C11.193 29.1103 11.5457 29.0167 11.7617 28.8301C11.9801 28.6408 12.0898 28.3976 12.0898 28.1016C12.0898 27.8809 12.0349 27.6819 11.9258 27.5049C11.8166 27.3255 11.6613 27.1849 11.46 27.083C11.2586 26.9787 11.0183 26.9268 10.7393 26.9268H9.25098V29.1104ZM59.165 29.1104H60.6172C61.107 29.1103 61.4598 29.0167 61.6758 28.8301C61.8942 28.6408 62.0039 28.3976 62.0039 28.1016C62.0038 27.8809 61.949 27.6819 61.8398 27.5049C61.7307 27.3254 61.5753 27.1849 61.374 27.083C61.1726 26.9787 60.9324 26.9268 60.6533 26.9268H59.165V29.1104ZM128.155 29.1104H129.607C130.098 29.1104 130.451 29.0169 130.667 28.8301C130.885 28.6408 130.994 28.3976 130.994 28.1016C130.994 27.8809 130.94 27.6819 130.831 27.5049C130.722 27.3254 130.566 27.1849 130.365 27.083C130.164 26.9787 129.923 26.9268 129.645 26.9268H128.155V29.1104ZM2.42188 27.3154H4.49512L3.48633 24.3135H3.42871L2.42188 27.3154ZM66.4883 27.3154H68.5615L67.5527 24.3135H67.4951L66.4883 27.3154ZM30.3594 26.6094H31.6045C31.9391 26.6093 32.2133 26.5519 32.4268 26.4355C32.6401 26.3192 32.7975 26.1586 32.8994 25.9551C33.0037 25.7513 33.0566 25.5164 33.0566 25.252C33.0566 24.9876 33.0037 24.755 32.8994 24.5537C32.7975 24.3523 32.6388 24.1956 32.4229 24.084C32.2094 23.97 31.9339 23.9131 31.5967 23.9131H30.3594V26.6094ZM121.56 26.6094H122.805C123.139 26.6094 123.414 26.5519 123.627 26.4355C123.84 26.3191 123.999 26.1588 124.101 25.9551C124.205 25.7513 124.257 25.5164 124.257 25.252C124.257 24.9878 124.205 24.7549 124.101 24.5537C123.999 24.3523 123.839 24.1956 123.623 24.084C123.41 23.97 123.134 23.9131 122.797 23.9131H121.56V26.6094ZM205.494 26.6094H206.738C207.073 26.6094 207.347 26.5518 207.561 26.4355C207.774 26.3191 207.932 26.1588 208.034 25.9551C208.139 25.7513 208.19 25.5164 208.19 25.252C208.19 24.9877 208.138 24.755 208.034 24.5537C207.932 24.3524 207.773 24.1956 207.558 24.084C207.344 23.97 207.069 23.9131 206.731 23.9131H205.494V26.6094ZM9.25098 25.9551H10.5869C10.8196 25.955 11.0291 25.9119 11.2158 25.8271C11.4025 25.7399 11.5495 25.6175 11.6562 25.46C11.7654 25.2998 11.8203 25.11 11.8203 24.8916C11.8202 24.603 11.7184 24.3655 11.5146 24.1787C11.3133 23.9919 11.0132 23.8984 10.6152 23.8984H9.25098V25.9551ZM59.165 25.9551H60.501C60.7337 25.955 60.9432 25.912 61.1299 25.8271C61.3166 25.7399 61.4636 25.6175 61.5703 25.46C61.6795 25.2998 61.7344 25.11 61.7344 24.8916C61.7343 24.6031 61.6324 24.3655 61.4287 24.1787C61.2273 23.9919 60.9272 23.8984 60.5293 23.8984H59.165V25.9551ZM128.155 25.9551H129.491C129.724 25.9551 129.934 25.9121 130.121 25.8271C130.308 25.7398 130.455 25.6176 130.562 25.46C130.671 25.2998 130.726 25.11 130.726 24.8916C130.726 24.603 130.623 24.3655 130.419 24.1787C130.218 23.992 129.918 23.8984 129.521 23.8984H128.155V25.9551ZM98.5762 20.8633C98.5762 21.0378 98.6297 21.1939 98.7363 21.332C98.8455 21.4679 99.0309 21.5361 99.293 21.5361C99.5501 21.5361 99.7336 21.4679 99.8428 21.332C99.9541 21.1963 100.011 21.0401 100.014 20.8633H101C101 21.2876 100.846 21.6321 100.538 21.8965C100.232 22.1585 99.817 22.29 99.293 22.29C98.7737 22.29 98.3599 22.1585 98.0518 21.8965C97.7462 21.6321 97.5943 21.2877 97.5967 20.8633H98.5762ZM167.737 20.8633C167.737 21.0376 167.79 21.1939 167.896 21.332C168.006 21.4679 168.192 21.5361 168.454 21.5361C168.711 21.5361 168.894 21.4679 169.003 21.332C169.114 21.1962 169.172 21.0403 169.175 20.8633H170.161C170.161 21.2877 170.006 21.6321 169.698 21.8965C169.393 22.1584 168.978 22.29 168.454 22.29C167.935 22.29 167.521 22.1585 167.213 21.8965C166.907 21.6321 166.755 21.2877 166.758 20.8633H167.737ZM7.69727 0C8.91487 0 9.9665 0.237414 10.8506 0.713867C11.7399 1.18502 12.4255 1.84442 12.9072 2.69141C13.389 3.53313 13.6299 4.51288 13.6299 5.62988C13.6299 6.7521 13.3829 7.73449 12.8906 8.57617C12.4036 9.41236 11.7078 10.061 10.8027 10.5215C9.89747 10.9821 8.8222 11.2119 7.57812 11.2119H4.91016V16.2627H0.979492V0H7.69727ZM26.9062 3.19141H19.498V6.52734H26.3271V9.72754H19.498V13.0703H26.9062V16.2627H15.5674V0H26.9062V3.19141ZM38.3652 10.0684H38.5557L42.6855 0H47.5527V16.2627H43.7256V6.27246H43.5908L39.6836 16.1592H37.2373L33.3311 6.21777H33.1963V16.2627H29.3682V0H34.2363L38.3652 10.0684ZM61.1143 3.19141H53.9355V5.73242H56.0791C57.4026 5.73242 58.5548 5.94717 59.5342 6.37598C60.5186 6.80474 61.2779 7.4085 61.8125 8.18652C62.3525 8.96473 62.623 9.88108 62.623 10.9346C62.623 11.9879 62.3524 12.9146 61.8125 13.7139C61.2779 14.513 60.5186 15.138 59.5342 15.5879C58.5548 16.0379 57.4026 16.2627 56.0791 16.2627H50.0049V0H61.1143V3.19141ZM68.5068 5.73242H70.6592C71.9878 5.73245 73.1418 5.94722 74.1211 6.37598C75.1005 6.80478 75.8579 7.40832 76.3926 8.18652C76.9325 8.96471 77.2021 9.88112 77.2021 10.9346C77.2021 11.9879 76.9325 12.9146 76.3926 13.7139C75.8579 14.5132 75.1004 15.1379 74.1211 15.5879C73.1418 16.0378 71.9878 16.2627 70.6592 16.2627H64.584V0H68.5068V5.73242ZM82.3555 16.2627H78.4326V0H82.3555V16.2627ZM98.0273 3.19141H93.0957V16.2627H89.2207V3.19141H84.2812V0H98.0273V3.19141ZM113.16 3.19141H108.229V16.2627H104.354V3.19141H99.415V0H113.16V3.19141ZM126.42 3.19141H119.011V6.52734H125.84V9.72754H119.011V13.0703H126.42V16.2627H115.08V0H126.42V3.19141ZM135.83 5.1377H135.957L138.958 0H143.357L138.45 8.13086L143.517 16.2627H139.006L135.957 11.0693H135.83L132.78 16.2627H128.302L133.344 8.13086L128.429 0H132.859L135.83 5.1377ZM149.321 6.52734H155.729V0H159.652V16.2627H155.729V9.72754H149.321V16.2627H145.391V0H149.321V6.52734ZM166.041 9.37012H166.176L172.576 0H175.959V16.2627H172.028V6.87598H171.925L165.445 16.2627H162.118V0H166.041V9.37012ZM182.361 6.3125H182.988L188.023 0H192.938L186.673 7.67871L193.264 16.2627H188.364L183.251 9.5127H182.361V16.2627H178.431V0H182.361V6.3125ZM210.2 16.2627H205.976L204.903 12.8477H199.287L198.217 16.2627H193.993L199.479 0H204.713L210.2 16.2627ZM53.9355 13.1494H56.0791C56.6508 13.1494 57.1327 13.0513 57.5244 12.8555C57.9214 12.6543 58.2207 12.3847 58.4219 12.0459C58.6283 11.7018 58.7314 11.3206 58.7314 10.9023C58.7314 10.2989 58.5041 9.79588 58.0488 9.39355C57.5936 8.98594 56.9367 8.78223 56.0791 8.78223H53.9355V13.1494ZM68.5068 13.1494H70.6592C71.2308 13.1494 71.7128 13.0513 72.1045 12.8555C72.5013 12.6543 72.8009 12.3846 73.002 12.0459C73.2083 11.7018 73.309 11.3205 73.3037 10.9023C73.309 10.2989 73.0832 9.79588 72.6279 9.39355C72.1727 8.9861 71.5165 8.78227 70.6592 8.78223H68.5068V13.1494ZM200.223 9.8623H203.966L202.156 4.09668H202.029L200.223 9.8623ZM4.91016 8.11523H6.84766C7.44055 8.11523 7.93597 8.01211 8.33301 7.80566C8.73535 7.5992 9.03963 7.31003 9.24609 6.93945C9.45241 6.56371 9.55563 6.12728 9.55566 5.62988C9.55566 5.12696 9.45256 4.69243 9.24609 4.32715C9.03964 3.95668 8.73526 3.67086 8.33301 3.46973C7.93067 3.26856 7.43528 3.16797 6.84766 3.16797H4.91016V8.11523Z" fill="white"/>
</svg>
