<svg width="24" height="24" viewBox="0 0 24 24" fill="none" xmlns="http://www.w3.org/2000/svg">
<path fill-rule="evenodd" clip-rule="evenodd" d="M6.80713 5.80751C7.14204 3.23768 9.33916 1.25352 12 1.25352C14.6609 1.25352 16.8581 3.23774 17.1929 5.80751L17.7964 5.80751C18.7033 5.80748 19.4553 5.80746 20.0455 5.88992C20.666 5.97662 21.2235 6.16805 21.6475 6.64177C22.0715 7.11549 22.2002 7.69076 22.2179 8.31701C22.2346 8.9127 22.1516 9.66012 22.0514 10.5614L21.771 13.0853C21.5615 14.971 21.3969 16.452 21.1174 17.6031C20.831 18.7829 20.4049 19.7037 19.6139 20.4117C18.8222 21.1203 17.8554 21.4417 16.6446 21.5959C15.4624 21.7465 13.9613 21.7465 12.0488 21.7465H11.9513C10.0388 21.7465 8.53762 21.7465 7.35547 21.5959C6.14467 21.4417 5.17787 21.1203 4.38613 20.4117C3.59515 19.7037 3.16908 18.7829 2.88262 17.6031C2.60314 16.452 2.4386 14.971 2.22908 13.0853L1.94866 10.5615C1.84848 9.66014 1.76541 8.91271 1.7822 8.31701C1.79984 7.69076 1.92853 7.11549 2.35253 6.64177C2.77654 6.16805 3.33407 5.97662 3.95454 5.88992C4.54475 5.80746 5.29679 5.80748 6.20365 5.80751L6.80713 5.80751ZM15.8109 5.80751C15.4883 3.99561 13.9048 2.61971 12 2.61971C10.0953 2.61971 8.51165 3.99567 8.18916 5.80751H15.8109Z" fill="white"/>
</svg>
