<svg width="32" height="32" viewBox="0 0 32 32" fill="none" xmlns="http://www.w3.org/2000/svg">
<path fill-rule="evenodd" clip-rule="evenodd" d="M9.07612 7.74338C9.52267 4.31694 12.4522 1.67139 16 1.67139C19.5478 1.67139 22.4774 4.31702 22.9239 7.74338L23.7285 7.74337C24.9376 7.74334 25.9404 7.74331 26.7273 7.85326C27.5546 7.96886 28.298 8.22409 28.8633 8.85572C29.4287 9.48736 29.6002 10.2544 29.6238 11.0894C29.6461 11.8836 29.5354 12.8802 29.4018 14.0819L29.0279 17.4471C28.7486 19.9613 28.5292 21.936 28.1565 23.4708C27.7746 25.0439 27.2065 26.2717 26.1518 27.2156C25.0962 28.1605 23.8071 28.589 22.1927 28.7946C20.6165 28.9954 18.615 28.9954 16.065 28.9953H15.935C13.385 28.9954 11.3834 28.9954 9.80724 28.7946C8.19284 28.589 6.90378 28.1605 5.84813 27.2156C4.79348 26.2717 4.2254 25.0439 3.84344 23.4708C3.4708 21.936 3.25141 19.9614 2.97206 17.4471L2.59816 14.082C2.46459 12.8802 2.35383 11.8836 2.37621 11.0894C2.39974 10.2544 2.57132 9.48736 3.13666 8.85572C3.702 8.22409 4.44537 7.96886 5.27267 7.85326C6.05961 7.74331 7.06233 7.74334 8.27149 7.74337L9.07612 7.74338ZM21.0811 7.74338C20.6511 5.32751 18.5396 3.49298 16 3.49298C13.4604 3.49298 11.3488 5.32759 10.9188 7.74338H21.0811Z" fill="white"/>
</svg>
