<svg width="32" height="32" viewBox="0 0 32 32" fill="none" xmlns="http://www.w3.org/2000/svg">
<path fill-rule="evenodd" clip-rule="evenodd" d="M16 10.9999C12.5022 10.9999 9.66666 13.8355 9.66666 17.3333C9.66666 20.8311 12.5022 23.6666 16 23.6666C19.4978 23.6666 22.3333 20.8311 22.3333 17.3333C22.3333 13.8355 19.4978 10.9999 16 10.9999ZM11.6667 17.3333C11.6667 14.94 13.6068 12.9999 16 12.9999C18.3932 12.9999 20.3333 14.94 20.3333 17.3333C20.3333 19.7265 18.3932 21.6666 16 21.6666C13.6068 21.6666 11.6667 19.7265 11.6667 17.3333Z" fill="currentColor"/>
<path fill-rule="evenodd" clip-rule="evenodd" d="M20.8669 2.98807C18.0913 0.520904 13.9087 0.520903 11.1331 2.98807L10.8455 3.24378C10.0559 3.9456 9.03628 4.33326 7.97991 4.33326C4.4932 4.33326 1.66666 7.1598 1.66666 10.6465V17.3936C1.66665 19.8423 1.66664 21.7618 1.83164 23.2846C2.00001 24.8387 2.34976 26.0979 3.13087 27.173C3.60374 27.8238 4.17612 28.3962 4.82698 28.8691C5.90208 29.6502 7.16125 29.9999 8.7153 30.1683C10.2381 30.3333 12.1576 30.3333 14.6062 30.3333H17.3937C19.8423 30.3333 21.7619 30.3333 23.2847 30.1683C24.8387 29.9999 26.0979 29.6502 27.173 28.8691C27.8239 28.3962 28.3963 27.8238 28.8691 27.173C29.6502 26.0979 30 24.8387 30.1684 23.2846C30.3333 21.7618 30.3333 19.8424 30.3333 17.3937V10.6465C30.3333 7.1598 27.5068 4.33326 24.0201 4.33326C22.9637 4.33326 21.9441 3.9456 21.1545 3.24378L20.8669 2.98807ZM12.4619 4.48289C14.4797 2.6893 17.5203 2.6893 19.5381 4.48289L19.8258 4.7386C20.9814 5.76584 22.4739 6.33326 24.0201 6.33326C26.4022 6.33326 28.3333 8.26437 28.3333 10.6465V17.3333C28.3333 19.8554 28.332 21.6666 28.18 23.0692C28.0301 24.4531 27.7432 25.32 27.2511 25.9974C26.9016 26.4785 26.4785 26.9015 25.9974 27.251C25.3201 27.7431 24.4532 28.03 23.0693 28.1799C21.6667 28.3319 19.8554 28.3333 17.3333 28.3333H14.6667C12.1446 28.3333 10.3333 28.3319 8.93072 28.1799C7.54684 28.03 6.67989 27.7431 6.00255 27.251C5.52148 26.9015 5.09842 26.4785 4.7489 25.9974C4.25679 25.32 3.96993 24.4531 3.82 23.0692C3.66804 21.6666 3.66666 19.8554 3.66666 17.3333V10.6465C3.66666 8.26437 5.59777 6.33326 7.97991 6.33326C9.52611 6.33326 11.0186 5.76584 12.1742 4.7386L12.4619 4.48289Z" fill="currentColor"/>
<path d="M22.6667 10.6667C22.6667 11.403 23.2636 12 24 12C24.7364 12 25.3333 11.403 25.3333 10.6667C25.3333 9.93029 24.7364 9.33333 24 9.33333C23.2636 9.33333 22.6667 9.93029 22.6667 10.6667Z" fill="currentColor"/>
</svg>
