<svg width="40" height="40" viewBox="0 0 40 40" fill="none" xmlns="http://www.w3.org/2000/svg">
<path fill-rule="evenodd" clip-rule="evenodd" d="M6.59152 6.7685C5 8.95904 5 12.0838 5 18.3334V21.6667C5 27.9163 5 31.041 6.59152 33.2316C7.10552 33.939 7.72767 34.5612 8.43512 35.0752C10.6257 36.6667 13.7504 36.6667 20 36.6667C26.2496 36.6667 29.3743 36.6667 31.5649 35.0752C32.2723 34.5612 32.8945 33.939 33.4085 33.2316C35 31.041 35 27.9163 35 21.6667V18.3334C35 12.0838 35 8.95904 33.4085 6.7685C32.8945 6.06104 32.2723 5.4389 31.5649 4.9249C29.3743 3.33337 26.2496 3.33337 20 3.33337C13.7504 3.33337 10.6257 3.33337 8.43512 4.9249C7.72767 5.4389 7.10552 6.06104 6.59152 6.7685ZM13.3333 12.0834C12.643 12.0834 12.0833 12.643 12.0833 13.3334C12.0833 14.0237 12.643 14.5834 13.3333 14.5834H26.6667C27.357 14.5834 27.9167 14.0237 27.9167 13.3334C27.9167 12.643 27.357 12.0834 26.6667 12.0834H13.3333ZM13.3333 18.75C12.643 18.75 12.0833 19.3097 12.0833 20C12.0833 20.6904 12.643 21.25 13.3333 21.25H26.6667C27.357 21.25 27.9167 20.6904 27.9167 20C27.9167 19.3097 27.357 18.75 26.6667 18.75H13.3333ZM13.3333 25.4167C12.643 25.4167 12.0833 25.9764 12.0833 26.6667C12.0833 27.3571 12.643 27.9167 13.3333 27.9167H18.3333C19.0237 27.9167 19.5833 27.3571 19.5833 26.6667C19.5833 25.9764 19.0237 25.4167 18.3333 25.4167H13.3333Z" fill="white"/>
</svg>
