<svg width="32" height="32" viewBox="0 0 32 32" fill="none" xmlns="http://www.w3.org/2000/svg">
<path fill-rule="evenodd" clip-rule="evenodd" d="M5.27322 5.41479C4 7.16722 4 9.66704 4 14.6667V17.3334C4 22.333 4 24.8328 5.27322 26.5853C5.68442 27.1512 6.18213 27.6489 6.7481 28.0601C8.50054 29.3334 11.0004 29.3334 16 29.3334C20.9996 29.3334 23.4995 29.3334 25.2519 28.0601C25.8179 27.6489 26.3156 27.1512 26.7268 26.5853C28 24.8328 28 22.333 28 17.3334V14.6667C28 9.66704 28 7.16722 26.7268 5.41479C26.3156 4.84882 25.8179 4.3511 25.2519 3.93991C23.4995 2.66669 20.9996 2.66669 16 2.66669C11.0004 2.66669 8.50054 2.66669 6.7481 3.93991C6.18213 4.3511 5.68442 4.84882 5.27322 5.41479ZM10.6667 9.66669C10.1144 9.66669 9.66667 10.1144 9.66667 10.6667C9.66667 11.219 10.1144 11.6667 10.6667 11.6667H21.3333C21.8856 11.6667 22.3333 11.219 22.3333 10.6667C22.3333 10.1144 21.8856 9.66669 21.3333 9.66669H10.6667ZM10.6667 15C10.1144 15 9.66667 15.4477 9.66667 16C9.66667 16.5523 10.1144 17 10.6667 17H21.3333C21.8856 17 22.3333 16.5523 22.3333 16C22.3333 15.4477 21.8856 15 21.3333 15H10.6667ZM10.6667 20.3334C10.1144 20.3334 9.66667 20.7811 9.66667 21.3334C9.66667 21.8856 10.1144 22.3334 10.6667 22.3334H14.6667C15.219 22.3334 15.6667 21.8856 15.6667 21.3334C15.6667 20.7811 15.219 20.3334 14.6667 20.3334H10.6667Z" fill="white"/>
</svg>
