<svg width="32" height="32" viewBox="0 0 32 32" fill="none" xmlns="http://www.w3.org/2000/svg">
<path fill-rule="evenodd" clip-rule="evenodd" d="M16 29.3334C23.3638 29.3334 29.3333 23.3638 29.3333 16C29.3333 8.63622 23.3638 2.66669 16 2.66669C8.63619 2.66669 2.66666 8.63622 2.66666 16C2.66666 23.3638 8.63619 29.3334 16 29.3334ZM23.4117 12.667C23.7801 12.2556 23.7452 11.6234 23.3337 11.255C22.9222 10.8866 22.29 10.9215 21.9216 11.333L17.4294 16.3506C16.5191 17.3673 15.9061 18.0484 15.382 18.4889C14.8827 18.9085 14.5895 19 14.3333 19C14.0772 19 13.7839 18.9085 13.2846 18.4889C12.7605 18.0484 12.1475 17.3673 11.2372 16.3506L10.0784 15.0561C9.70997 14.6447 9.07776 14.6097 8.6663 14.9781C8.25482 15.3465 8.2199 15.9787 8.58829 16.3902L9.7967 17.7399C10.6445 18.6869 11.3516 19.4768 11.9978 20.0199C12.6813 20.5944 13.4186 21 14.3333 21C15.2481 21 15.9853 20.5944 16.6689 20.0199C17.315 19.4768 18.0221 18.6869 18.8699 17.7399L23.4117 12.667Z" fill="currentColor"/>
</svg>
