<svg width="32" height="32" viewBox="0 0 32 32" fill="none" xmlns="http://www.w3.org/2000/svg">
<path fill-rule="evenodd" clip-rule="evenodd" d="M16 29.3334C23.3638 29.3334 29.3334 23.3638 29.3334 16C29.3334 8.63622 23.3638 2.66669 16 2.66669C8.63622 2.66669 2.66669 8.63622 2.66669 16C2.66669 23.3638 8.63622 29.3334 16 29.3334ZM19.5355 14.2022C19.9261 13.8117 19.9261 13.1785 19.5355 12.788C19.145 12.3975 18.5118 12.3975 18.1213 12.788L16 14.9093L13.8787 12.788C13.4882 12.3975 12.855 12.3975 12.4645 12.788C12.0739 13.1785 12.0739 13.8117 12.4645 14.2022L14.5858 16.3235L12.4645 18.4449C12.0739 18.8354 12.0739 19.4686 12.4645 19.8591C12.855 20.2496 13.4882 20.2496 13.8787 19.8591L16 17.7378L18.1213 19.8591C18.5118 20.2496 19.145 20.2496 19.5355 19.8591C19.9261 19.4686 19.9261 18.8354 19.5355 18.4449L17.4142 16.3235L19.5355 14.2022Z" fill="currentColor"/>
</svg>
