<svg width="32" height="32" viewBox="0 0 32 32" fill="none" xmlns="http://www.w3.org/2000/svg">
<path d="M26.0405 7.37379C26.431 6.98327 26.431 6.3501 26.0405 5.95958C25.65 5.56906 25.0168 5.56906 24.6263 5.95958L16 14.5858L7.37379 5.95958C6.98327 5.56906 6.3501 5.56906 5.95958 5.95958C5.56906 6.35011 5.56906 6.98327 5.95958 7.3738L14.5858 16L5.95962 24.6262C5.56909 25.0168 5.56909 25.6499 5.95962 26.0405C6.35014 26.431 6.98331 26.431 7.37383 26.0405L16 17.4143L24.6262 26.0405C25.0168 26.431 25.6499 26.431 26.0405 26.0405C26.431 25.6499 26.431 25.0168 26.0405 24.6262L17.4142 16L26.0405 7.37379Z" fill="currentColor"/>
</svg>
