<svg width="32" height="32" viewBox="0 0 32 32" fill="none" xmlns="http://www.w3.org/2000/svg">
<path fill-rule="evenodd" clip-rule="evenodd" d="M16.0603 3C18.5091 2.99999 20.4285 2.99998 21.9514 3.16497C23.5054 3.33334 24.7646 3.6831 25.8397 4.4642C26.4905 4.93708 27.0629 5.50945 27.5358 6.16031C28.3169 7.23541 28.6667 8.49459 28.835 10.0486C29 11.5715 29 13.491 29 15.9396V16.0605C29 18.5091 29 20.4285 28.835 21.9514C28.6667 23.5054 28.3169 24.7646 27.5358 25.8397C27.0629 26.4905 26.4905 27.0629 25.8397 27.5358C24.7646 28.3169 23.5054 28.6667 21.9514 28.835C20.4285 29 18.509 29 16.0604 29H15.9395C13.4909 29 11.5715 29 10.0486 28.835C8.49459 28.6667 7.23541 28.3169 6.16031 27.5358C5.50945 27.0629 4.93708 26.4905 4.4642 25.8397C3.6831 24.7646 3.33334 23.5054 3.16497 21.9514C2.99998 20.4285 2.99999 18.5091 3 16.0603V15.9397C2.99999 13.491 2.99998 11.5715 3.16497 10.0486C3.33334 8.49459 3.6831 7.23541 4.4642 6.16031C4.93708 5.50945 5.50945 4.93708 6.16031 4.4642C7.23541 3.6831 8.49459 3.33334 10.0486 3.16497C11.5715 2.99998 13.4909 2.99999 15.9397 3H16.0603ZM17 9.33333C17 8.78105 16.5523 8.33333 16 8.33333C15.4477 8.33333 15 8.78105 15 9.33333V22.6667C15 23.219 15.4477 23.6667 16 23.6667C16.5523 23.6667 17 23.219 17 22.6667V9.33333ZM22.3333 14.6667C22.3333 14.1144 21.8856 13.6667 21.3333 13.6667C20.781 13.6667 20.3333 14.1144 20.3333 14.6667V22.6667C20.3333 23.219 20.781 23.6667 21.3333 23.6667C21.8856 23.6667 22.3333 23.219 22.3333 22.6667V14.6667ZM11.6667 17.3333C11.6667 16.781 11.219 16.3333 10.6667 16.3333C10.1144 16.3333 9.66667 16.781 9.66667 17.3333V22.6667C9.66667 23.219 10.1144 23.6667 10.6667 23.6667C11.219 23.6667 11.6667 23.219 11.6667 22.6667V17.3333Z" fill="currentColor"/>
</svg>
