<svg width="32" height="32" viewBox="0 0 32 32" fill="none" xmlns="http://www.w3.org/2000/svg">
<path fill-rule="evenodd" clip-rule="evenodd" d="M24.3398 19.5527L24.6896 17.0393C24.7972 16.266 24.8956 15.5591 24.9831 14.9106C25.1628 13.5779 25.2526 12.9116 24.8542 12.4558C24.4557 12 23.7709 12 22.4013 12H9.59872C8.22909 12 7.54427 12 7.14583 12.4558C6.74738 12.9116 6.83724 13.5779 7.01696 14.9106C7.10443 15.5593 7.20275 16.2658 7.31041 17.0393L7.66019 19.5527C8.04035 22.2843 8.23042 23.6502 8.63345 24.7471C9.38712 26.7984 10.6899 28.3263 12.2449 28.9825C13.0764 29.3334 14.051 29.3334 16 29.3334C17.9491 29.3334 18.9236 29.3334 19.7551 28.9825C21.3101 28.3263 22.6129 26.7984 23.3666 24.7471C23.7696 23.6502 23.9597 22.2844 24.3398 19.5527ZM14.3333 14.6667C14.3333 14.1144 13.8856 13.6667 13.3333 13.6667C12.781 13.6667 12.3333 14.1144 12.3333 14.6667V25.3334C12.3333 25.8856 12.781 26.3334 13.3333 26.3334C13.8856 26.3334 14.3333 25.8856 14.3333 25.3334V14.6667ZM19.6667 14.6667C19.6667 14.1144 19.2189 13.6667 18.6667 13.6667C18.1144 13.6667 17.6667 14.1144 17.6667 14.6667V25.3334C17.6667 25.8856 18.1144 26.3334 18.6667 26.3334C19.2189 26.3334 19.6667 25.8856 19.6667 25.3334V14.6667Z" fill="currentColor"/>
<path d="M16 1.66669C12.5022 1.66669 9.66666 4.50222 9.66666 8.00002V8.33335H5.33333C4.78104 8.33335 4.33333 8.78107 4.33333 9.33335C4.33333 9.88564 4.78104 10.3334 5.33333 10.3334H26.6667C27.2189 10.3334 27.6667 9.88564 27.6667 9.33335C27.6667 8.78107 27.2189 8.33335 26.6667 8.33335H22.3333V8.00002C22.3333 4.50222 19.4978 1.66669 16 1.66669Z" fill="currentColor"/>
</svg>
