<svg width="32" height="32" viewBox="0 0 32 32" fill="none" xmlns="http://www.w3.org/2000/svg">
<path d="M24.7718 10.4659C20.7788 8.45671 15.7871 9.12066 12.4541 12.4578C9.20368 15.7123 8.49256 20.5466 10.3208 24.4924C10.0669 24.3693 9.81563 24.2314 9.56755 24.0779C9.32124 23.9255 9.19809 23.8493 9.10497 23.8124C8.92693 23.7418 8.7919 23.7214 8.60098 23.7361C8.50113 23.7438 8.38801 23.7732 8.16178 23.8319C6.73794 24.2014 6.02595 24.3862 5.51306 24.2817C4.62288 24.1003 3.92718 23.4037 3.74602 22.5124C3.64164 21.9989 3.82616 21.2861 4.19521 19.8604C4.25387 19.6338 4.2832 19.5205 4.29089 19.4202C4.30553 19.229 4.28472 19.0923 4.21387 18.9141C4.1767 18.8207 4.1007 18.6983 3.94871 18.4534C1.20418 14.0315 3.3282 8.67081 6.00924 5.98639C10.43 1.56004 17.5975 1.56004 22.0183 5.98639C23.3186 7.2883 24.2364 8.82814 24.7718 10.4659Z" fill="currentColor"/>
<path fill-rule="evenodd" clip-rule="evenodd" d="M23.651 28.2994C20.0061 30.5547 15.5152 28.7215 13.3974 26.6011C9.75677 22.9559 9.75677 17.0458 13.3974 13.4005C17.0381 9.75532 22.9407 9.75532 26.5814 13.4005C28.7893 15.6112 30.5385 20.0259 28.2783 23.6675C28.1531 23.8691 28.0905 23.97 28.0599 24.0469C28.0015 24.1936 27.9844 24.3063 27.9965 24.4637C28.0028 24.5463 28.027 24.6396 28.0753 24.8262C28.3792 26.0003 28.5311 26.5873 28.4452 27.0102C28.296 27.7442 27.7231 28.3179 26.99 28.4673C26.5676 28.5533 25.9813 28.4012 24.8087 28.0969C24.6224 28.0485 24.5292 28.0243 24.447 28.018C24.2897 28.0058 24.1786 28.0226 24.0319 28.0808C23.9552 28.1112 23.8538 28.1739 23.651 28.2994ZM17.3336 20C17.3336 20.7363 16.7366 21.3333 16.0003 21.3333C15.2639 21.3333 14.6669 20.7363 14.6669 20C14.6669 19.2636 15.2639 18.6666 16.0003 18.6666C16.7366 18.6666 17.3336 19.2636 17.3336 20ZM21.3336 20C21.3336 20.7363 20.7366 21.3333 20.0003 21.3333C19.2639 21.3333 18.6669 20.7363 18.6669 20C18.6669 19.2636 19.2639 18.6666 20.0003 18.6666C20.7366 18.6666 21.3336 19.2636 21.3336 20ZM24.0003 21.3333C24.7366 21.3333 25.3336 20.7363 25.3336 20C25.3336 19.2636 24.7366 18.6666 24.0003 18.6666C23.2639 18.6666 22.6669 19.2636 22.6669 20C22.6669 20.7363 23.2639 21.3333 24.0003 21.3333Z" fill="currentColor"/>
</svg>
