<svg width="40" height="40" viewBox="0 0 40 40" fill="none" xmlns="http://www.w3.org/2000/svg">
<path d="M30.9647 13.0824C25.9735 10.5709 19.7338 11.4008 15.5677 15.5723C11.5046 19.6405 10.6157 25.6833 12.901 30.6156C12.5837 30.4617 12.2695 30.2893 11.9594 30.0974C11.6516 29.9069 11.4976 29.8116 11.3812 29.7655C11.1587 29.6773 10.9899 29.6517 10.7512 29.6702C10.6264 29.6798 10.485 29.7165 10.2022 29.7899C8.42243 30.2518 7.53243 30.4828 6.89133 30.3521C5.7786 30.1254 4.90898 29.2547 4.68252 28.1406C4.55205 27.4986 4.7827 26.6076 5.24401 24.8256C5.31734 24.5423 5.354 24.4007 5.36361 24.2753C5.38192 24.0363 5.3559 23.8654 5.26733 23.6427C5.22087 23.5259 5.12588 23.3728 4.93589 23.0667C1.50522 17.5394 4.16025 10.8385 7.51156 7.48301C13.0375 1.95008 21.9969 1.95008 27.5229 7.48301C29.1482 9.11041 30.2955 11.0352 30.9647 13.0824Z" fill="white"/>
<path fill-rule="evenodd" clip-rule="evenodd" d="M29.5637 35.3743C25.0076 38.1935 19.3939 35.9019 16.7468 33.2514C12.196 28.6949 12.196 21.3073 16.7468 16.7507C21.2976 12.1942 28.6759 12.1942 33.2267 16.7507C35.9866 19.5141 38.1731 25.0324 35.3478 29.5844C35.1914 29.8365 35.1131 29.9625 35.0749 30.0587C35.0019 30.2421 34.9805 30.3829 34.9956 30.5797C35.0035 30.6829 35.0337 30.7995 35.0941 31.0328C35.474 32.5004 35.6639 33.2342 35.5565 33.7628C35.37 34.6803 34.6538 35.3974 33.7375 35.5841C33.2095 35.6917 32.4766 35.5015 31.0109 35.1211C30.778 35.0607 30.6615 35.0305 30.5587 35.0225C30.3622 35.0073 30.2232 35.0283 30.0399 35.101C29.9441 35.139 29.8173 35.2174 29.5637 35.3743ZM21.667 25C21.667 25.9205 20.9208 26.6666 20.0003 26.6666C19.0799 26.6666 18.3337 25.9205 18.3337 25C18.3337 24.0795 19.0799 23.3333 20.0003 23.3333C20.9208 23.3333 21.667 24.0795 21.667 25ZM26.667 25C26.667 25.9205 25.9208 26.6666 25.0003 26.6666C24.0799 26.6666 23.3337 25.9205 23.3337 25C23.3337 24.0795 24.0799 23.3333 25.0003 23.3333C25.9208 23.3333 26.667 24.0795 26.667 25ZM30.0003 26.6666C30.9208 26.6666 31.667 25.9205 31.667 25C31.667 24.0795 30.9208 23.3333 30.0003 23.3333C29.0799 23.3333 28.3337 24.0795 28.3337 25C28.3337 25.9205 29.0799 26.6666 30.0003 26.6666Z" fill="white"/>
</svg>
