<svg width="32" height="32" viewBox="0 0 32 32" fill="none" xmlns="http://www.w3.org/2000/svg">
<path d="M18.3333 10.6666C18.3333 9.74614 19.0795 8.99995 20 8.99995C20.9205 8.99995 21.6667 9.74614 21.6667 10.6666C21.6667 11.5871 20.9205 12.3333 20 12.3333C19.0795 12.3333 18.3333 11.5871 18.3333 10.6666Z" fill="currentColor"/>
<path d="M10.3333 21.3333C10.3333 20.4128 11.0795 19.6666 12 19.6666C12.9205 19.6666 13.6667 20.4128 13.6667 21.3333C13.6667 22.2538 12.9205 22.9999 12 22.9999C11.0795 22.9999 10.3333 22.2538 10.3333 21.3333Z" fill="currentColor"/>
<path fill-rule="evenodd" clip-rule="evenodd" d="M21.9514 3.16497C20.4285 2.99998 18.509 2.99999 16.0603 3H15.9397C13.491 2.99999 11.5715 2.99998 10.0486 3.16497C8.49459 3.33334 7.23541 3.6831 6.16031 4.4642C5.50945 4.93708 4.93708 5.50945 4.4642 6.16031C3.6831 7.23541 3.33334 8.49459 3.16497 10.0486C2.99998 11.5715 2.99999 13.491 3 15.9397V16.0603C2.99999 18.509 2.99998 20.4285 3.16497 21.9514C3.33334 23.5054 3.6831 24.7646 4.4642 25.8397C4.93708 26.4905 5.50945 27.0629 6.16031 27.5358C7.23541 28.3169 8.49459 28.6667 10.0486 28.835C11.5715 29 13.4909 29 15.9395 29H16.0604C18.509 29 20.4285 29 21.9514 28.835C23.5054 28.6667 24.7646 28.3169 25.8397 27.5358C26.4905 27.0629 27.0629 26.4905 27.5358 25.8397C28.3169 24.7646 28.6667 23.5054 28.835 21.9514C29 20.4285 29 18.5091 29 16.0605V15.9396C29 13.491 29 11.5715 28.835 10.0486C28.6667 8.49459 28.3169 7.23541 27.5358 6.16031C27.0629 5.50945 26.4905 4.93708 25.8397 4.4642C24.7646 3.6831 23.5054 3.33334 21.9514 3.16497ZM20 6.99995C17.975 6.99995 16.3333 8.64157 16.3333 10.6666C16.3333 12.6917 17.975 14.3333 20 14.3333C22.025 14.3333 23.6667 12.6917 23.6667 10.6666C23.6667 8.64157 22.025 6.99995 20 6.99995ZM13.0001 8C13.0001 7.44772 12.5524 7 12.0001 7C11.4478 7 11.0001 7.44772 11.0001 8L11.0001 16C11.0001 16.5523 11.4478 17 12.0001 17C12.5524 17 13.0001 16.5523 13.0001 16L13.0001 8ZM21.0001 16C21.0001 15.4477 20.5524 15 20.0001 15C19.4478 15 19.0001 15.4477 19.0001 16V24C19.0001 24.5523 19.4478 25 20.0001 25C20.5524 25 21.0001 24.5523 21.0001 24V16ZM12 17.6666C9.97496 17.6666 8.33333 19.3082 8.33333 21.3333C8.33333 23.3583 9.97496 24.9999 12 24.9999C14.025 24.9999 15.6667 23.3583 15.6667 21.3333C15.6667 19.3082 14.025 17.6666 12 17.6666Z" fill="currentColor"/>
</svg>
