<svg width="32" height="32" viewBox="0 0 32 32" fill="none" xmlns="http://www.w3.org/2000/svg">
<path d="M22.3269 4.68164C23.708 4.58061 25.1928 4.97277 26.6062 6.41406C28.2913 8.13253 28.8434 10.2457 28.6199 12.5059C28.3942 14.7865 27.3757 17.2057 25.9275 19.4355C24.482 21.6612 22.6349 23.6567 20.8064 25.0889C18.9489 26.5438 17.219 27.333 15.9998 27.333C14.7806 27.3329 13.0513 26.5435 11.1941 25.0889C9.3656 23.6567 7.51853 21.6612 6.073 19.4355C4.62478 17.2057 3.60626 14.7865 3.38062 12.5059C3.15707 10.2457 3.70916 8.13254 5.39429 6.41406C6.8077 4.97281 8.29243 4.58053 9.67358 4.68164C11.0881 4.7852 12.4385 5.41205 13.5085 6.09082C14.9873 7.02888 17.0121 7.02875 18.491 6.09082C19.5611 5.41201 20.9123 4.7852 22.3269 4.68164Z" fill="currentColor" stroke="currentColor" stroke-width="1.33333" stroke-linecap="round"/>
</svg>
