<svg width="32" height="32" viewBox="0 0 32 32" fill="none" xmlns="http://www.w3.org/2000/svg">
<path d="M8.39156 6.6207C11.9473 4.0373 13.7252 2.74559 15.7556 2.67111C15.9185 2.66513 16.0815 2.66513 16.2444 2.67111C18.2748 2.74559 20.0527 4.0373 23.6085 6.6207C27.1642 9.20411 28.9421 10.4958 29.6404 12.4038C29.6964 12.5569 29.7468 12.712 29.7914 12.8687C30.348 14.8228 29.6689 16.9128 28.3107 21.0928L26.016 28.1552C25.6514 29.2774 24.6057 30.0371 23.4258 30.0371C21.9217 30.0371 20.7023 28.8177 20.7023 27.3136V23.6483C20.7023 22.237 19.5581 21.0928 18.1468 21.0928H13.8532C12.4419 21.0928 11.2977 22.237 11.2977 23.6483V27.3136C11.2977 28.8177 10.0784 30.0371 8.5742 30.0371C7.3943 30.0371 6.34858 29.2774 5.98397 28.1552L3.68927 21.0928C2.3311 16.9128 1.65201 14.8228 2.2086 12.8687C2.25325 12.712 2.30363 12.5569 2.35965 12.4038C3.05792 10.4958 4.8358 9.20411 8.39156 6.6207Z" fill="#2564D8"/>
</svg>
