<svg width="32" height="32" viewBox="0 0 32 32" fill="none" xmlns="http://www.w3.org/2000/svg">
<path d="M8.39156 6.62076C11.9473 4.03736 13.7252 2.74565 15.7556 2.67117C15.9185 2.66519 16.0815 2.66519 16.2444 2.67117C18.2748 2.74565 20.0527 4.03736 23.6085 6.62076C27.1642 9.20417 28.9421 10.4959 29.6404 12.4039C29.6964 12.557 29.7468 12.712 29.7914 12.8688C30.348 14.8228 29.6689 16.9129 28.3107 21.0929L26.016 28.1553C25.6514 29.2774 24.6057 30.0372 23.4258 30.0372C21.9217 30.0372 20.7023 28.8178 20.7023 27.3136V23.6484C20.7023 22.237 19.5581 21.0929 18.1468 21.0929H13.8532C12.4419 21.0929 11.2977 22.237 11.2977 23.6484V27.3136C11.2977 28.8178 10.0784 30.0372 8.5742 30.0372C7.3943 30.0372 6.34858 29.2774 5.98397 28.1553L3.68927 21.0929C2.3311 16.9129 1.65201 14.8228 2.2086 12.8688C2.25325 12.712 2.30363 12.557 2.35965 12.4039C3.05792 10.4959 4.8358 9.20417 8.39156 6.62076Z" fill="currentColor"/>
</svg>
