<svg width="32" height="32" viewBox="0 0 32 32" fill="none" xmlns="http://www.w3.org/2000/svg">
<path fill-rule="evenodd" clip-rule="evenodd" d="M29.3333 16C29.3333 23.3638 23.3638 29.3334 16 29.3334C8.63619 29.3334 2.66666 23.3638 2.66666 16C2.66666 8.63622 8.63619 2.66669 16 2.66669C23.3638 2.66669 29.3333 8.63622 29.3333 16ZM16 13.6667C16.5523 13.6667 17 14.1144 17 14.6667V22.6667C17 23.219 16.5523 23.6667 16 23.6667C15.4477 23.6667 15 23.219 15 22.6667V14.6667C15 14.1144 15.4477 13.6667 16 13.6667ZM16 12C16.7364 12 17.3333 11.4031 17.3333 10.6667C17.3333 9.93031 16.7364 9.33335 16 9.33335C15.2636 9.33335 14.6667 9.93031 14.6667 10.6667C14.6667 11.4031 15.2636 12 16 12Z" fill="currentColor"/>
</svg>
