<svg width="40" height="40" viewBox="0 0 40 40" fill="none" xmlns="http://www.w3.org/2000/svg">
<path d="M24 30C24.5523 30 25 30.4477 25 31V36C25 36.5523 24.5523 37 24 37H16C15.4477 37 15 36.5523 15 36V31C15 30.4477 15.4477 30 16 30H24ZM14 27L13.7959 27.0107C12.7872 27.113 12 27.9644 12 29V36.75C8.55141 35.8583 6.00017 32.6781 6 28.8906C6 24.4117 9.56731 20.7803 13.9678 20.7803H14V27ZM26.0322 20.7803C30.4327 20.7803 34 24.4117 34 28.8906C33.9998 32.6781 31.4486 35.8583 28 36.75V29C28 27.9644 27.2128 27.113 26.2041 27.0107L26 27V20.7803H26.0322ZM24 27H16V20.7803H24V27ZM20 2C24.4003 2 27.9676 5.63066 27.9678 10.1094C27.9678 14.5883 24.4005 18.2197 20 18.2197C15.5995 18.2197 12.0322 14.5883 12.0322 10.1094C12.0324 5.63066 15.5997 2 20 2Z" fill="white"/>
</svg>
