<svg width="32" height="32" viewBox="0 0 32 32" fill="none" xmlns="http://www.w3.org/2000/svg">
<path d="M19.2004 24.0004C19.642 24.0006 20.0002 24.3585 20.0002 24.8002V28.8002C20.0001 29.2418 19.642 29.5998 19.2004 29.6H12.8C12.3582 29.6 12.0003 29.2419 12.0002 28.8002V24.8002C12.0002 24.3583 12.3582 24.0004 12.8 24.0004H19.2004ZM11.2004 21.6L11.0363 21.6078C10.2297 21.6897 9.6 22.3714 9.59979 23.1996V29.3998C6.84094 28.6862 4.79999 26.1417 4.79999 23.1117C4.80024 19.5289 7.65388 16.6245 11.174 16.6244H11.2004V21.6ZM20.8254 16.6244C24.3456 16.6244 27.2001 19.5288 27.2004 23.1117C27.2004 26.1418 25.1587 28.6863 22.3996 29.3998V23.1996C22.3994 22.3161 21.6835 21.6 20.8 21.6V16.6244H20.8254ZM19.2004 21.6H12.8V16.6244H19.2004V21.6ZM16.0002 1.59998C19.5205 1.60008 22.3742 4.50521 22.3742 8.08826C22.374 11.6711 19.5203 14.5755 16.0002 14.5756C12.48 14.5756 9.62641 11.6712 9.62616 8.08826C9.62616 4.50514 12.4798 1.59998 16.0002 1.59998Z" fill="currentColor"/>
</svg>
