<svg width="40" height="40" viewBox="0 0 40 40" fill="none" xmlns="http://www.w3.org/2000/svg">
<path d="M29.2727 14.0211C28.0287 13.8182 26.389 13.8182 23.8637 13.8182H16.1364C13.6111 13.8182 11.9714 13.8182 10.7273 14.0211C10.1977 14.1075 9.73974 14.2307 9.31569 14.4064C7.4223 15.1906 5.918 16.6949 5.13374 18.5883C4.81734 19.3522 4.78699 20.2864 4.78699 20.2864L5.49597 20.4L9.18066 20.9527C16.8605 22.1047 24.6715 22.0746 32.3422 20.8634L35.2738 20.4005C35.2738 20.4005 35.143 19.2561 34.8663 18.5883C34.0821 16.6949 32.5778 15.1906 30.6844 14.4064C30.2603 14.2307 29.8024 14.1075 29.2727 14.0211Z" fill="white"/>
<path d="M35.4407 22.7211L32.7038 23.1532C24.7994 24.4013 16.7506 24.4323 8.83678 23.2452L5.13496 22.69L4.56178 22.5981C4.54553 23.3967 4.54553 24.3206 4.54553 25.409C4.54553 29.0095 4.54553 30.8097 5.13373 32.2298C5.918 34.1232 7.4223 35.6275 9.31569 36.4117C10.7357 36.9999 12.536 36.9999 16.1364 36.9999H23.8637C27.4641 36.9999 29.2643 36.9999 30.6844 36.4117C32.5778 35.6275 34.0821 34.1232 34.8663 32.2298C35.4545 30.8097 35.4545 29.0095 35.4545 25.409C35.4545 24.376 35.4545 23.4912 35.4407 22.7211Z" fill="white"/>
<path fill-rule="evenodd" clip-rule="evenodd" d="M23.0909 3H16.9091C13.995 3 12.5379 3 11.6326 3.9053C10.7273 4.81061 10.7273 6.26767 10.7273 9.1818V12.8485C12.0375 12.659 13.7085 12.659 16.0144 12.6591L23.9857 12.6591C26.2916 12.659 27.9626 12.659 29.2727 12.8485V9.1818C29.2727 6.26767 29.2727 4.81061 28.3674 3.9053C27.4621 3 26.0051 3 23.0909 3ZM16.9091 6.47726C17.5493 6.47726 18.0682 6.99621 18.0682 7.63635V10.7273C18.0682 11.3674 17.5493 11.8863 16.9091 11.8863C16.269 11.8863 15.7501 11.3674 15.7501 10.7273V7.63635C15.7501 6.99621 16.269 6.47726 16.9091 6.47726ZM23.0909 6.47726C23.7311 6.47726 24.25 6.99621 24.25 7.63635V10.7273C24.25 11.3674 23.7311 11.8863 23.0909 11.8863C22.4508 11.8863 21.9319 11.3674 21.9319 10.7273V7.63635C21.9319 6.99621 22.4508 6.47726 23.0909 6.47726Z" fill="white"/>
</svg>
