<svg width="32" height="32" viewBox="0 0 32 32" fill="none" xmlns="http://www.w3.org/2000/svg">
<path d="M23.4182 11.2169C22.4229 11.0545 21.1112 11.0545 19.0909 11.0545H12.9091C10.8889 11.0545 9.57711 11.0545 8.58186 11.2169C8.15813 11.286 7.79178 11.3846 7.45254 11.5251C5.93783 12.1525 4.73439 13.356 4.10698 14.8707C3.85386 15.4818 3.82958 16.2292 3.82958 16.2292L4.39676 16.32L7.34452 16.7622C13.4884 17.6838 19.7372 17.6597 25.8738 16.6907L28.219 16.3204C28.219 16.3204 28.1144 15.4049 27.8931 14.8707C27.2657 13.356 26.0622 12.1525 24.5475 11.5251C24.2083 11.3846 23.8419 11.286 23.4182 11.2169Z" fill="currentColor"/>
<path d="M28.3525 18.1769L26.163 18.5226C19.8395 19.521 13.4004 19.5459 7.06941 18.5962L4.10796 18.152L3.64941 18.0785C3.63641 18.7174 3.63641 19.4565 3.63641 20.3273C3.63641 23.2076 3.63641 24.6478 4.10698 25.7838C4.73439 27.2985 5.93783 28.502 7.45254 29.1294C8.58858 29.6 10.0288 29.6 12.9091 29.6H19.0909C21.9713 29.6 23.4115 29.6 24.5475 29.1294C26.0622 28.502 27.2657 27.2985 27.8931 25.7838C28.3636 24.6478 28.3636 23.2076 28.3636 20.3273C28.3636 19.5009 28.3636 18.793 28.3525 18.1769Z" fill="currentColor"/>
<path fill-rule="evenodd" clip-rule="evenodd" d="M18.4727 2.40002H13.5273C11.196 2.40002 10.0303 2.40002 9.3061 3.12427C8.58186 3.84851 8.58186 5.01416 8.58186 7.34547V10.2788C9.62995 10.1272 10.9668 10.1272 12.8115 10.1273L19.1886 10.1273C21.0333 10.1272 22.3701 10.1272 23.4182 10.2788V7.34547C23.4182 5.01416 23.4182 3.84851 22.6939 3.12427C21.9697 2.40002 20.804 2.40002 18.4727 2.40002ZM13.5273 5.18184C14.0394 5.18184 14.4546 5.59699 14.4546 6.10911V8.58183C14.4546 9.09395 14.0394 9.5091 13.5273 9.5091C13.0152 9.5091 12.6 9.09395 12.6 8.58183V6.10911C12.6 5.59699 13.0152 5.18184 13.5273 5.18184ZM18.4727 5.18184C18.9849 5.18184 19.4 5.59699 19.4 6.10911V8.58183C19.4 9.09395 18.9849 9.5091 18.4727 9.5091C17.9606 9.5091 17.5455 9.09395 17.5455 8.58183V6.10911C17.5455 5.59699 17.9606 5.18184 18.4727 5.18184Z" fill="currentColor"/>
</svg>
