<svg width="32" height="32" viewBox="0 0 32 32" fill="none" xmlns="http://www.w3.org/2000/svg">
<path fill-rule="evenodd" clip-rule="evenodd" d="M14.3333 4.33331V6.75554C14.3333 7.30782 13.8856 7.75554 13.3333 7.75554C12.781 7.75554 12.3333 7.30782 12.3333 6.75554V4.33331H8.59257C4.76749 4.33331 1.66665 7.43416 1.66665 11.2592C1.66665 12.3682 2.30262 13.3789 3.30239 13.8588L3.95221 14.1707C5.48691 14.9074 5.48691 17.0926 3.95221 17.8292L3.30239 18.1411C2.30262 18.621 1.66665 19.6317 1.66665 20.7407C1.66665 24.5658 4.76749 27.6666 8.59257 27.6666H12.3333V25.2444C12.3333 24.6921 12.781 24.2444 13.3333 24.2444C13.8856 24.2444 14.3333 24.6921 14.3333 25.2444V27.6666H23.4074C27.2325 27.6666 30.3333 24.5658 30.3333 20.7407C30.3333 19.6317 29.6973 18.621 28.6976 18.1411L28.0477 17.8292C26.513 17.0926 26.513 14.9074 28.0477 14.1707L28.6976 13.8588C29.6973 13.3789 30.3333 12.3682 30.3333 11.2592C30.3333 7.43416 27.2325 4.33331 23.4074 4.33331H14.3333ZM13.3333 10.0222C12.781 10.0222 12.3333 10.4699 12.3333 11.0222V13.8666C12.3333 14.4189 12.781 14.8666 13.3333 14.8666C13.8856 14.8666 14.3333 14.4189 14.3333 13.8666V11.0222C14.3333 10.4699 13.8856 10.0222 13.3333 10.0222ZM12.3333 18.1333C12.3333 17.581 12.781 17.1333 13.3333 17.1333C13.8856 17.1333 14.3333 17.581 14.3333 18.1333V20.9778C14.3333 21.53 13.8856 21.9778 13.3333 21.9778C12.781 21.9778 12.3333 21.53 12.3333 20.9778V18.1333Z" fill="white"/>
</svg>
