<svg width="40" height="40" viewBox="0 0 40 40" fill="none" xmlns="http://www.w3.org/2000/svg">
<path fill-rule="evenodd" clip-rule="evenodd" d="M17.9166 5.41663V8.4444C17.9166 9.13476 17.357 9.6944 16.6666 9.6944C15.9763 9.6944 15.4166 9.13476 15.4166 8.4444V5.41663H10.7407C5.95934 5.41663 2.08329 9.29268 2.08329 14.074C2.08329 15.4603 2.87826 16.7236 4.12797 17.3235L4.94025 17.7134C6.85863 18.6342 6.85863 21.3657 4.94025 22.2865L4.12797 22.6764C2.87826 23.2763 2.08329 24.5397 2.08329 25.9259C2.08329 30.7072 5.95934 34.5833 10.7407 34.5833H15.4166V31.5555C15.4166 30.8652 15.9763 30.3055 16.6666 30.3055C17.357 30.3055 17.9166 30.8652 17.9166 31.5555V34.5833H29.2592C34.0406 34.5833 37.9166 30.7072 37.9166 25.9259C37.9166 24.5397 37.1217 23.2763 35.8719 22.6764L35.0597 22.2865C33.1413 21.3657 33.1413 18.6342 35.0597 17.7134L35.872 17.3235C37.1217 16.7236 37.9166 15.4603 37.9166 14.074C37.9166 9.29268 34.0406 5.41663 29.2592 5.41663H17.9166ZM16.6666 12.5277C15.9763 12.5277 15.4166 13.0874 15.4166 13.7777V17.3333C15.4166 18.0237 15.9763 18.5833 16.6666 18.5833C17.357 18.5833 17.9166 18.0237 17.9166 17.3333V13.7777C17.9166 13.0874 17.357 12.5277 16.6666 12.5277ZM15.4166 22.6666C15.4166 21.9763 15.9763 21.4166 16.6666 21.4166C17.357 21.4166 17.9166 21.9763 17.9166 22.6666V26.2222C17.9166 26.9125 17.357 27.4722 16.6666 27.4722C15.9763 27.4722 15.4166 26.9125 15.4166 26.2222V22.6666Z" fill="white"/>
</svg>
