<svg width="32" height="32" viewBox="0 0 32 32" fill="none" xmlns="http://www.w3.org/2000/svg">
<path fill-rule="evenodd" clip-rule="evenodd" d="M16.0619 2.66669C18.5734 2.66668 20.5421 2.66667 22.104 2.83589C23.6978 3.00858 24.9893 3.3673 26.092 4.16843C26.7595 4.65344 27.3466 5.24049 27.8316 5.90803C28.6327 7.0107 28.9914 8.30216 29.1641 9.89606C29.3333 11.4579 29.3333 13.4266 29.3333 15.938V16.0619C29.3333 18.5734 29.3333 20.5421 29.1641 22.104C28.9914 23.6979 28.6327 24.9893 27.8316 26.092C27.37 26.7273 26.8159 27.2898 26.188 27.7607C26.1746 27.7708 26.1611 27.7809 26.1475 27.7909C26.1331 27.8016 26.1186 27.8122 26.104 27.8228L26.092 27.8316C24.9893 28.6327 23.6978 28.9915 22.104 29.1642C20.5421 29.3334 18.5734 29.3334 16.062 29.3334H15.9381C13.4266 29.3334 11.4579 29.3334 9.89603 29.1642C8.30213 28.9915 7.01067 28.6327 5.908 27.8316C5.87761 27.8095 5.8474 27.7872 5.81737 27.7648C5.18724 27.293 4.63133 26.7292 4.1684 26.092C3.36727 24.9893 3.00855 23.6979 2.83586 22.104C2.66664 20.5421 2.66665 18.5734 2.66666 16.0619V15.9381C2.66665 13.4266 2.66664 11.458 2.83586 9.89606C3.00855 8.30216 3.36727 7.0107 4.1684 5.90803C4.65341 5.24049 5.24046 4.65344 5.908 4.16843C7.01067 3.3673 8.30213 3.00858 9.89603 2.83589C11.4579 2.66667 13.4266 2.66668 15.9381 2.66669H16.0619ZM25.4358 25.7189C24.8809 23.2858 22.7038 21.4701 20.1026 21.4701H11.8974C9.29621 21.4701 7.11907 23.2858 6.5642 25.7189C6.71745 25.8619 6.87851 25.9967 7.04673 26.1227C7.06895 26.1393 7.09128 26.1558 7.11372 26.1721C7.80842 26.6768 8.69761 26.971 10.117 27.1248C11.5555 27.2807 13.4132 27.2821 16 27.2821C18.5868 27.2821 20.4444 27.2807 21.883 27.1248C23.3024 26.971 24.1916 26.6768 24.8863 26.1721C24.9101 26.1548 24.9337 26.1373 24.9573 26.1197C25.124 25.9946 25.2837 25.8608 25.4358 25.7189ZM16 5.40173C12.4125 5.40173 9.50426 8.30997 9.50426 11.8975C9.50426 15.4849 12.4125 18.3932 16 18.3932C19.5875 18.3932 22.4957 15.4849 22.4957 11.8975C22.4957 8.30997 19.5875 5.40173 16 5.40173Z" fill="white"/>
</svg>
