<svg width="32" height="32" viewBox="0 0 32 32" fill="none" xmlns="http://www.w3.org/2000/svg">
<path fill-rule="evenodd" clip-rule="evenodd" d="M14.2 2.5C7.73828 2.5 2.5 7.73826 2.5 14.2C2.5 20.6617 7.73828 25.9 14.2 25.9C20.6618 25.9 25.9 20.6617 25.9 14.2C25.9 7.73826 20.6618 2.5 14.2 2.5ZM4.3 14.2C4.3 8.73237 8.73239 4.3 14.2 4.3C19.6676 4.3 24.1 8.73237 24.1 14.2C24.1 19.6676 19.6676 24.1 14.2 24.1C8.73239 24.1 4.3 19.6676 4.3 14.2Z" fill="currentColor"/>
<path d="M24.4365 23.1637C24.085 22.8122 23.5152 22.8122 23.1637 23.1637C22.8122 23.5151 22.8122 24.085 23.1637 24.4365L27.9636 29.2364C28.3151 29.5879 28.8849 29.5879 29.2364 29.2364C29.5879 28.8849 29.5879 28.3151 29.2364 27.9636L24.4365 23.1637Z" fill="currentColor"/>
</svg>
