<svg width="32" height="32" viewBox="0 0 32 32" fill="none" xmlns="http://www.w3.org/2000/svg">
<path fill-rule="evenodd" clip-rule="evenodd" d="M14.2222 2.66669C7.84026 2.66669 2.66666 7.84028 2.66666 14.2222C2.66666 20.6042 7.84026 25.7778 14.2222 25.7778C20.6042 25.7778 25.7778 20.6042 25.7778 14.2222C25.7778 7.84028 20.6042 2.66669 14.2222 2.66669ZM4.44444 14.2222C4.44444 8.82211 8.82211 4.44446 14.2222 4.44446C19.6224 4.44446 24 8.82211 24 14.2222C24 19.6223 19.6224 24 14.2222 24C8.82211 24 4.44444 19.6223 4.44444 14.2222Z" fill="#8B92A5"/>
<path d="M24.3324 23.0753C23.9852 22.7281 23.4224 22.7281 23.0753 23.0753C22.7281 23.4224 22.7281 23.9852 23.0753 24.3323L27.8159 29.073C28.163 29.4201 28.7258 29.4201 29.073 29.073C29.4201 28.7259 29.4201 28.1631 29.073 27.8159L24.3324 23.0753Z" fill="#8B92A5"/>
</svg>
