<svg width="32" height="32" viewBox="0 0 32 32" fill="none" xmlns="http://www.w3.org/2000/svg">
<path d="M13.0757 2.08362C13.2995 2.08376 13.4923 2.2273 13.5366 2.42659L14.4952 6.73206C14.5109 6.80239 14.507 6.87526 14.4835 6.94377L13.7983 8.94299C13.7371 9.12169 13.5551 9.24375 13.3491 9.24377H12.9897V16.0836H13.6952C14.7348 16.0836 15.578 16.8494 15.578 17.7938V26.5031C15.578 28.4804 13.8133 30.0836 11.6366 30.0836H11.5194C9.34278 30.0836 7.57803 28.4804 7.57803 26.5031V17.7938C7.57803 16.8495 8.42057 16.0837 9.46006 16.0836H10.1663V9.24377H9.80693C9.6009 9.24377 9.41894 9.12169 9.35771 8.94299L8.67256 6.94377C8.64909 6.87524 8.64519 6.8024 8.66084 6.73206L9.61943 2.42659C9.66381 2.22726 9.85652 2.0837 10.0804 2.08362H13.0757Z" fill="white"/>
<path d="M22.778 2.08362C24.1035 2.08367 25.178 3.15817 25.178 4.48362V8.48362C25.178 9.52814 24.5096 10.414 23.578 10.7438V21.4227C24.5097 21.7524 25.178 22.639 25.178 23.6836V27.6836C25.178 29.009 24.1034 30.0836 22.778 30.0836C21.4526 30.0836 20.3781 29.0091 20.378 27.6836V23.6836C20.378 22.6389 21.0463 21.7524 21.978 21.4227V10.7438C21.0464 10.4141 20.3781 9.52821 20.378 8.48362V4.48362C20.378 3.15813 21.4525 2.08362 22.778 2.08362Z" fill="white"/>
</svg>
