<svg width="32" height="32" viewBox="0 0 32 32" fill="none" xmlns="http://www.w3.org/2000/svg">
<path d="M28.1416 14.4972C28.677 14.0973 28.677 13.2948 28.1416 12.8948L17.7886 5.16194C17.1292 4.66935 16.1902 5.13998 16.1902 5.96312V9.76003H13.9982L12.7822 9.82403C12.2062 9.85603 11.7582 9.88803 11.1502 10.016C10.5422 10.112 9.96622 10.24 9.39022 10.496C8.81422 10.72 8.30222 11.072 7.85422 11.424C6.89422 12.16 6.12622 13.088 5.55022 14.048C5.26222 14.528 5.03822 15.04 4.81422 15.552C4.59022 16.064 4.43022 16.544 4.33422 17.056C4.07822 18.048 4.07822 19.072 4.04622 19.968C4.04622 20.192 4.01422 20.416 4.01422 20.64C4.01422 20.864 3.98222 21.088 4.01422 21.28V22.56C4.07822 23.04 4.11022 23.488 4.17422 23.936L4.30222 25.312C4.342 25.7346 4.9612 25.76 5.03652 25.3422C5.21041 24.3778 5.3846 23.4092 5.55022 22.432V22.592C5.99822 21.184 6.76622 20.064 7.66222 19.2C8.11022 18.784 8.59022 18.432 9.13422 18.176C9.64622 17.92 10.1582 17.728 10.7022 17.632C10.9582 17.6 11.0542 17.568 11.3102 17.536H16.1902V21.4289C16.1902 22.2521 17.1292 22.7227 17.7886 22.2301L28.1416 14.4972Z" fill="currentColor"/>
</svg>
