<svg width="48" height="48" viewBox="0 0 48 48" fill="none" xmlns="http://www.w3.org/2000/svg">
<path d="M25.6594 8.3567C27.1156 8.3567 27.7602 8.35798 28.2917 8.40557C34.2012 8.93466 38.8846 13.618 39.4136 19.5275C39.4612 20.059 39.4625 20.7036 39.4625 22.1599V23.8345C39.4625 24.5352 40.0305 25.1033 40.7312 25.1033C41.432 25.1033 42 24.5352 42 23.8345V22.0745C42 20.7265 42 19.9603 41.941 19.3012C41.3025 12.1691 35.6501 6.51675 28.518 5.87819C27.8588 5.81917 27.0927 5.81919 25.7445 5.81921H23.9847C23.284 5.81921 22.716 6.38725 22.716 7.08796C22.716 7.78867 23.284 8.3567 23.9847 8.3567L25.6594 8.3567Z" fill="#E2ECFF" fill-opacity="0.2"/>
<path d="M15.7154 10.5141C13.9356 8.87869 11.2 8.87869 9.42019 10.5141C9.34731 10.581 9.2695 10.6589 9.16847 10.7599L7.6502 12.2782C6.12244 13.8059 5.4811 16.0083 5.94979 18.1175C8.60903 30.084 17.9546 39.4296 29.9212 42.0889C32.0303 42.5576 34.2327 41.9162 35.7605 40.3885L37.2786 38.8704C37.3797 38.7693 37.4576 38.6914 37.5246 38.6185C39.16 36.8387 39.16 34.103 37.5246 32.3233C37.4576 32.2503 37.3797 32.1725 37.2786 32.0714L34.7931 29.5859C33.0674 27.8602 30.4614 27.3667 28.2242 28.3419C26.9435 28.9001 25.4515 28.6176 24.4636 27.6297L20.409 23.5751C19.4211 22.5871 19.1385 21.0952 19.6968 19.8144C20.672 17.5773 20.1784 14.9712 18.4528 13.2456L15.9672 10.76C15.8661 10.6589 15.7883 10.581 15.7154 10.5141Z" fill="#E2ECFF" fill-opacity="0.2"/>
<path d="M25.1807 11.8001C24.48 11.8001 23.9119 12.3682 23.9119 13.0689C23.9119 13.7696 24.48 14.3376 25.1807 14.3376H26.1376C26.2852 14.3376 26.3456 14.3376 26.3948 14.3384C30.2849 14.3941 33.425 17.5341 33.4807 21.4242C33.4814 21.4734 33.4814 21.5338 33.4814 21.6814V22.6383C33.4814 23.339 34.0494 23.9071 34.7501 23.9071C35.4509 23.9071 36.0189 23.339 36.0189 22.6383V21.6691C36.0189 21.5376 36.0189 21.4576 36.0179 21.3879C35.9425 16.1248 31.6942 11.8765 26.4312 11.8011C26.3614 11.8001 26.2813 11.8001 26.1498 11.8001H25.1807Z" fill="#E2ECFF" fill-opacity="0.2"/>
</svg>
