<svg width="48" height="48" viewBox="0 0 48 48" fill="none" xmlns="http://www.w3.org/2000/svg">
<path d="M22.811 18.4164C23.1954 17.1945 24.8049 17.1945 25.1892 18.4164C25.7464 20.188 27.365 21.4326 29.2401 21.4326C29.8202 21.4326 30.2531 21.7894 30.4291 22.349C30.6062 22.912 30.4616 23.5035 29.9589 23.8808C28.4722 24.9966 27.8727 26.9478 28.4277 28.7121C28.6325 29.3635 28.3873 29.9213 27.9574 30.2439C27.5345 30.5613 27.0049 30.608 26.5197 30.2439C25.0207 29.1189 22.9795 29.1189 21.4805 30.2439C20.9953 30.608 20.4657 30.5613 20.0428 30.2439C19.6129 29.9212 19.3677 29.3635 19.5726 28.7121C20.1275 26.9478 19.528 24.9966 18.0414 23.8808C17.5387 23.5035 17.394 22.912 17.5711 22.349C17.7471 21.7894 18.1801 21.4326 18.7602 21.4326C20.6353 21.4326 22.2538 20.188 22.811 18.4164Z" fill="#E2ECFF" fill-opacity="0.2"/>
<path fill-rule="evenodd" clip-rule="evenodd" d="M13.5426 8.08333C13.5426 4.99974 16.0423 2.5 19.1259 2.5H29.4579C32.2194 2.5 34.4579 4.73858 34.4579 7.5C34.4579 8.60457 35.3534 9.5 36.4579 9.5H37.6366C40.8063 9.5 43.5941 11.96 43.465 15.3312C43.2994 19.6533 42.4599 26.5862 39.0933 32.7216C38.1807 34.3847 36.9619 36.0184 35.6444 37.5406L35.5452 37.6552C33.6498 39.8452 32.0695 41.6712 30.3706 42.9159C28.5432 44.2546 26.5928 44.9215 24.0003 44.9215C21.4077 44.9215 19.4573 44.2546 17.6299 42.9159C15.931 41.6712 14.3507 39.8452 12.4553 37.6552L12.3561 37.5406C11.0386 36.0184 9.81983 34.3847 8.90725 32.7216C5.64895 26.7836 4.75564 20.515 4.55259 16.493C4.38158 13.1055 7.18941 10.6667 10.3415 10.6667H10.9593C12.386 10.6667 13.5426 9.51007 13.5426 8.08333ZM28.051 17.5162C26.786 13.4946 21.2143 13.4946 19.9493 17.5162C19.7689 18.0896 19.272 18.4326 18.7602 18.4326C14.5421 18.4326 13.0159 23.8601 16.2406 26.2802C16.6849 26.6137 16.8935 27.2313 16.7108 27.812C16.0911 29.7824 16.886 31.6256 18.2421 32.6433C19.6052 33.6664 21.6075 33.8995 23.2813 32.6433C23.7133 32.3191 24.2869 32.3191 24.719 32.6433C26.3928 33.8995 28.3951 33.6664 29.7582 32.6433C31.1143 31.6256 31.9092 29.7824 31.2894 27.812C31.1068 27.2313 31.3153 26.6137 31.7597 26.2802C34.9843 23.8601 33.4582 18.4326 29.2401 18.4326C28.7282 18.4326 28.2313 18.0896 28.051 17.5162Z" fill="#E2ECFF" fill-opacity="0.2"/>
</svg>
