<svg width="48" height="48" viewBox="0 0 48 48" fill="none" xmlns="http://www.w3.org/2000/svg">
<path fill-rule="evenodd" clip-rule="evenodd" d="M30.0616 39.401C34.6811 33.5102 40.5 24.9518 40.5 19.2174C40.5 9.70849 33.3366 2 24.5 2C15.6634 2 8.5 9.70849 8.5 19.2174C8.5 24.9518 14.3189 33.5102 18.9384 39.401C21.3485 42.4743 22.5535 44.0109 24.5 44.0109C26.4465 44.0109 27.6515 42.4743 30.0616 39.401ZM31.668 16.9411C32.1878 16.2961 32.0862 15.3518 31.4411 14.832C30.7961 14.3122 29.8518 14.4138 29.332 15.0589L25.289 20.0764C24.4588 21.1067 23.935 21.751 23.4991 22.1581C23.2942 22.3494 23.1634 22.4346 23.0882 22.4722C23.0322 22.5002 23.0122 22.5001 23.0015 22.5H22.9985C22.9878 22.5001 22.9678 22.5002 22.9118 22.4722C22.8366 22.4346 22.7058 22.3494 22.5009 22.1581C22.065 21.751 21.5412 21.1067 20.711 20.0764L19.668 18.782C19.1482 18.1369 18.2039 18.0354 17.5589 18.5551C16.9138 19.0749 16.8122 20.0192 17.332 20.6643L18.4401 22.0396C19.1852 22.9643 19.8425 23.7802 20.4533 24.3507C21.1091 24.9632 21.9245 25.5 23 25.5C24.0755 25.5 24.8909 24.9632 25.5467 24.3507C26.1575 23.7802 26.8148 22.9644 27.5598 22.0396L31.668 16.9411Z" fill="#E2ECFF" fill-opacity="0.2"/>
</svg>
