<svg width="48" height="48" viewBox="0 0 48 48" fill="none" xmlns="http://www.w3.org/2000/svg">
<g clip-path="url(#clip0_3_20)">
<path d="M30.7598 19.3574C31.539 19.3574 32.1363 19.755 32.5508 20.5508C32.9818 21.3465 33.1972 22.4739 33.1973 23.9326C33.1973 25.3914 32.9817 26.5275 32.5508 27.3398C32.1363 28.1356 31.539 28.5342 30.7598 28.5342C29.9807 28.5341 29.3842 28.1356 28.9697 27.3398C28.5719 26.5275 28.373 25.3915 28.373 23.9326C28.3731 22.4739 28.5719 21.3465 28.9697 20.5508C29.3842 19.7552 29.9807 19.3575 30.7598 19.3574Z" fill="#E2ECFF" fill-opacity="0.2"/>
<path fill-rule="evenodd" clip-rule="evenodd" d="M32 4C38.6274 4 44 9.37258 44 16V32C44 38.6274 38.6274 44 32 44H16C9.37258 44 4 38.6274 4 32V16C4 9.37258 9.37258 4 16 4H32ZM16.1729 16C14.7305 16 13.5779 16.1988 12.7158 16.5967C11.8538 16.978 11.4229 17.5832 11.4229 18.4121C11.4229 18.81 11.5139 19.1586 11.6963 19.457C11.8786 19.7387 12.1109 19.9789 12.3926 20.1777C12.7242 19.9456 13.1472 19.7547 13.6611 19.6055C14.1749 19.4398 14.7717 19.3574 15.4512 19.3574C16.2135 19.3574 16.7857 19.4898 17.167 19.7549C17.5483 20.0201 17.7393 20.3687 17.7393 20.7998C17.7392 21.7114 17.1426 22.1669 15.9492 22.167H13.6113C13.4788 22.3493 13.371 22.5816 13.2881 22.8633C13.2218 23.1285 13.1885 23.4527 13.1885 23.834C13.1885 24.1984 13.2297 24.5132 13.3125 24.7783C13.3954 25.0436 13.4953 25.2678 13.6113 25.4502H15.9492C16.7448 25.4502 17.3003 25.5746 17.6152 25.8232C17.9466 26.0719 18.1122 26.4364 18.1123 26.917C18.1123 27.3978 17.9047 27.7875 17.4902 28.0859C17.0924 28.3842 16.4711 28.5341 15.626 28.5342C14.731 28.5342 14.0011 28.4097 13.4375 28.1611C12.8905 27.8959 12.4507 27.6471 12.1191 27.415C11.8042 27.5974 11.5387 27.854 11.3232 28.1855C11.1078 28.5004 11.0001 28.8817 11 29.3291C11 30.0752 11.4397 30.6891 12.3184 31.1699C13.197 31.6506 14.4986 31.8906 16.2227 31.8906C17.1178 31.8906 17.9386 31.7829 18.6846 31.5674C19.4471 31.3684 20.1024 31.0707 20.6494 30.6729C21.1963 30.2751 21.6186 29.7939 21.917 29.2305C22.232 28.6668 22.3896 28.0282 22.3896 27.3154C22.3896 26.785 22.323 26.3207 22.1904 25.9229C22.0578 25.525 21.8757 25.1764 21.6436 24.8779C21.4115 24.5796 21.146 24.3307 20.8477 24.1318C20.5493 23.933 20.226 23.7674 19.8779 23.6348C20.4581 23.353 20.9557 22.9386 21.3701 22.3916C21.8012 21.8279 22.0166 21.1474 22.0166 20.3516C22.0165 19.0254 21.519 17.9725 20.5244 17.1934C19.5297 16.3978 18.0791 16 16.1729 16ZM30.7852 16C29.807 16 28.9032 16.1743 28.0742 16.5225C27.2619 16.8706 26.5568 17.3847 25.96 18.0645C25.3799 18.7275 24.9243 19.5563 24.5928 20.5508C24.2778 21.5288 24.1202 22.6562 24.1201 23.9326C24.1201 25.2091 24.2778 26.3451 24.5928 27.3398C24.9243 28.3344 25.3798 29.1719 25.96 29.8516C26.5568 30.5147 27.2618 31.021 28.0742 31.3691C28.9031 31.7173 29.8071 31.8906 30.7852 31.8906C31.7466 31.8906 32.634 31.7173 33.4463 31.3691C34.2751 31.021 34.9794 30.5147 35.5596 29.8516C36.1564 29.1718 36.6206 28.3345 36.9521 27.3398C37.2837 26.3451 37.4492 25.2091 37.4492 23.9326C37.4492 22.6562 37.2837 21.5288 36.9521 20.5508C36.6206 19.5562 36.1563 18.7275 35.5596 18.0645C34.9794 17.3848 34.275 16.8706 33.4463 16.5225C32.634 16.1743 31.7466 16 30.7852 16Z" fill="#E2ECFF" fill-opacity="0.2"/>
</g>
<defs>
<clipPath id="clip0_3_20">
<rect x="4" y="4" width="40" height="40" rx="12" fill="white"/>
</clipPath>
</defs>
</svg>
