<svg width="48" height="48" viewBox="0 0 48 48" fill="none" xmlns="http://www.w3.org/2000/svg">
<path d="M37.989 9.28486C36.7625 8.89826 35.3843 8.71056 33.792 8.6123C31.9719 8.49999 29.7601 8.5 27.0465 8.5H20.9215C17.7147 8.49999 15.2008 8.49998 13.1924 8.69093C11.1453 8.88557 9.46913 9.28914 7.99148 10.1946C6.4441 11.1429 5.1431 12.4439 4.19486 13.9913C4.16126 14.0461 4.12836 14.1012 4.09613 14.1566C4.25072 11.2703 4.65449 9.35865 5.70912 7.84534C6.26102 7.0534 6.92904 6.35696 7.68867 5.78158C10.0408 4 13.396 4 20.1064 4H30.8438C34.2183 4 35.9055 4 36.9538 5.0929C37.7589 5.93227 37.9457 7.16456 37.989 9.28486Z" fill="#E2ECFF" fill-opacity="0.2"/>
<path d="M5.47363 14.775C4.00003 17.1797 4.00003 20.4531 4.00003 27C4.00003 33.5469 4.00003 36.8203 5.47363 39.225C6.29819 40.5705 7.42949 41.7018 8.77504 42.5264C11.1797 44 14.4532 44 21 44H27C33.5469 44 36.8203 44 39.225 42.5264C40.5706 41.7018 41.7019 40.5705 42.5264 39.225C43.4942 37.6457 43.8264 35.6917 43.9404 32.6819H31.2729C27.432 32.6819 24.3184 29.5682 24.3184 25.7273C24.3184 21.8864 27.432 18.7728 31.2729 18.7728H43.7554C43.5549 17.1175 43.1902 15.8581 42.5264 14.775C41.7019 13.4295 40.5706 12.2982 39.225 11.4736C38.842 11.2389 38.4369 11.0415 38 10.8756C35.6944 10 32.504 10 27 10H21C14.4532 10 11.1797 10 8.77504 11.4736C7.42949 12.2982 6.29819 13.4295 5.47363 14.775Z" fill="#E2ECFF" fill-opacity="0.2"/>
<path fill-rule="evenodd" clip-rule="evenodd" d="M43.9558 21.7728H31.2729C29.0889 21.7728 27.3184 23.5433 27.3184 25.7273C27.3184 27.9113 29.0889 29.6819 31.2729 29.6819H43.9954C44 28.8535 44 27.9621 44 27C44 24.9655 44 23.2472 43.9558 21.7728ZM31.2729 24.2273C30.4445 24.2273 29.7729 24.8989 29.7729 25.7273C29.7729 26.5557 30.4445 27.2273 31.2729 27.2273H36.7275C37.5559 27.2273 38.2275 26.5557 38.2275 25.7273C38.2275 24.8989 37.5559 24.2273 36.7275 24.2273H31.2729Z" fill="#E2ECFF" fill-opacity="0.2"/>
</svg>
