<svg width="24" height="24" viewBox="0 0 24 24" fill="none" xmlns="http://www.w3.org/2000/svg">
<path fill-rule="evenodd" clip-rule="evenodd" d="M12.0464 2C13.93 1.99999 15.4066 1.99999 16.578 2.1269C17.7734 2.25642 18.742 2.52546 19.569 3.12631C20.0697 3.49006 20.5099 3.93035 20.8737 4.43101C21.4745 5.25801 21.7436 6.2266 21.8731 7.42203C22 8.59343 22 10.0699 22 11.9535V12.0464C22 13.93 22 15.4066 21.8731 16.578C21.7436 17.7734 21.4745 18.742 20.8737 19.569C20.5275 20.0455 20.112 20.4673 19.641 20.8205C19.6309 20.8281 19.6208 20.8356 19.6107 20.8431C19.5998 20.8512 19.5889 20.8592 19.578 20.8671L19.569 20.8737C18.742 21.4745 17.7734 21.7436 16.578 21.8731C15.4066 22 13.9301 22 12.0465 22H11.9536C10.07 22 8.59343 22 7.42203 21.8731C6.2266 21.7436 5.25801 21.4745 4.43101 20.8737C4.40822 20.8571 4.38556 20.8404 4.36304 20.8236C3.89044 20.4697 3.47351 20.0469 3.12631 19.569C2.52546 18.742 2.25642 17.7734 2.1269 16.578C1.99999 15.4066 1.99999 13.93 2 12.0464V11.9536C1.99999 10.07 1.99999 8.59345 2.1269 7.42203C2.25642 6.2266 2.52546 5.25801 3.12631 4.43101C3.49006 3.93035 3.93035 3.49006 4.43101 3.12631C5.25801 2.52546 6.2266 2.25642 7.42203 2.1269C8.59345 1.99999 10.07 1.99999 11.9536 2H12.0464ZM19.0768 19.2891C18.6607 17.4643 17.0278 16.1026 15.0769 16.1026H8.92308C6.97217 16.1026 5.33931 17.4643 4.92316 19.2891C5.03809 19.3964 5.15889 19.4975 5.28505 19.592C5.30172 19.6045 5.31847 19.6168 5.3353 19.6291C5.85633 20.0076 6.52321 20.2283 7.58774 20.3436C8.66666 20.4605 10.0599 20.4615 12 20.4615C13.9401 20.4615 15.3333 20.4605 16.4123 20.3436C17.4768 20.2283 18.1437 20.0076 18.6647 19.6291C18.6826 19.6161 18.7003 19.603 18.718 19.5897C18.843 19.4959 18.9628 19.3956 19.0768 19.2891ZM12 4.05128C9.30938 4.05128 7.12821 6.23246 7.12821 8.92308C7.12821 11.6137 9.30938 13.7949 12 13.7949C14.6906 13.7949 16.8718 11.6137 16.8718 8.92308C16.8718 6.23246 14.6906 4.05128 12 4.05128Z" fill="white"/>
</svg>
